<?xml version="1.0" encoding="UTF-8" standalone="yes"?>
<svg version="1.2" width="1563px" height="1563px" fill-rule="evenodd" baseProfile="tiny-ps" xmlns="http://www.w3.org/2000/svg">
  <title>bimi-svg-tiny-12-ps</title>
  <g>
    <path fill="#fefefe" d="M -0.5,-0.5 C 520.5,-0.5 1041.5,-0.5 1562.5,-0.5C 1562.5,520.5 1562.5,1041.5 1562.5,1562.5C 1041.5,1562.5 520.5,1562.5 -0.5,1562.5C -0.5,1041.5 -0.5,520.5 -0.5,-0.5 Z"/>
  </g>
  <g>
    <path fill="#0c0c0e" d="M 1493.5,617.5 C 1495.02,617.511 1496.18,618.177 1497,619.5C 1500.21,624.087 1503.04,628.92 1505.5,634C 1513.82,633.649 1522.15,633.649 1530.5,634C 1531.06,634.725 1531.39,635.558 1531.5,636.5C 1526.06,643.444 1520.06,649.944 1513.5,656C 1516.28,663.121 1518.28,670.455 1519.5,678C 1519.23,681.164 1517.57,682.164 1514.5,681C 1508.46,676.641 1502.79,671.807 1497.5,666.5C 1490.89,672.778 1484.22,679.111 1477.5,685.5C 1475.08,684.271 1474.08,682.271 1474.5,679.5C 1475.25,672.742 1476.92,666.242 1479.5,660C 1472.95,659.092 1466.62,657.425 1460.5,655C 1458.87,651.583 1459.87,649.25 1463.5,648C 1470.5,645.889 1477.34,643.389 1484,640.5C 1486.5,632.488 1489.67,624.821 1493.5,617.5 Z"/>
  </g>
  <g>
    <path fill="#060606" d="M 67.5,783.5 C 67.5,791.833 67.5,800.167 67.5,808.5C 62.8333,808.5 58.1667,808.5 53.5,808.5C 52.9979,795.817 52.1646,783.151 51,770.5C 48.595,769.726 46.095,769.226 43.5,769C 43,768.5 42.5,768 42,767.5C 41.3333,763.5 41.3333,759.5 42,755.5C 44.3333,754.833 46.6667,754.167 49,753.5C 49.6667,736.5 49.6667,719.5 49,702.5C 47.0013,676.528 46.0013,650.528 46,624.5C 49.7436,623.374 53.577,623.207 57.5,624C 58.6721,624.419 59.6721,625.085 60.5,626C 83.9368,624.191 105.27,629.858 124.5,643C 152.663,667.83 158.163,696.996 141,730.5C 127.293,750.289 108.46,762.456 84.5,767C 78.8507,767.757 73.184,768.257 67.5,768.5C 67.5,773.5 67.5,778.5 67.5,783.5 Z"/>
  </g>
  <g>
    <path fill="#050505" d="M 457.5,693.5 C 456.791,692.596 455.791,692.263 454.5,692.5C 454.5,691.167 454.5,689.833 454.5,688.5C 454.467,685.164 455.134,681.997 456.5,679C 463.195,679.172 469.862,679.005 476.5,678.5C 482.173,660.313 488.34,642.313 495,624.5C 495.739,623.426 496.739,622.759 498,622.5C 500.871,623.401 503.704,624.401 506.5,625.5C 506.833,626.667 507.167,627.833 507.5,629C 503.479,645.064 498.646,660.898 493,676.5C 492.503,678.81 492.337,681.143 492.5,683.5C 514.788,687.159 537.121,690.492 559.5,693.5C 562.5,706 557.834,710.5 545.5,707C 530.189,704.595 514.856,702.261 499.5,700C 495.833,699.333 492.167,699.333 488.5,700C 487.044,702.266 486.21,704.766 486,707.5C 484.516,721.469 484.183,735.469 485,749.5C 489.855,789.041 510.021,799.874 545.5,782C 556.02,771.798 560.687,759.298 559.5,744.5C 564.5,744.5 569.5,744.5 574.5,744.5C 575.718,774.778 562.052,794.944 533.5,805C 513.128,810.098 496.295,804.598 483,788.5C 471.936,771.31 467.436,752.477 469.5,732C 469.415,719.433 470.082,706.933 471.5,694.5C 466.797,694.563 462.13,694.229 457.5,693.5 Z"/>
  </g>
  <g>
    <path fill="#3379f5" d="M 1494.5,627.5 C 1497.27,631.517 1499.93,635.684 1502.5,640C 1508.5,640.333 1514.5,640.667 1520.5,641C 1516.03,644.465 1511.87,648.298 1508,652.5C 1508.79,658.542 1509.79,664.542 1511,670.5C 1506.32,666.487 1501.66,662.487 1497,658.5C 1491.33,662.839 1486.33,667.839 1482,673.5C 1483.17,666.798 1484.67,660.131 1486.5,653.5C 1481.75,653.725 1477.09,653.225 1472.5,652C 1477.54,649.931 1482.54,647.764 1487.5,645.5C 1489.85,639.479 1492.18,633.479 1494.5,627.5 Z"/>
  </g>
  <g>
    <path fill="#120e10" d="M 1145.5,630.5 C 1154.1,630.388 1159.93,634.388 1163,642.5C 1163.82,644.788 1164.49,647.122 1165,649.5C 1171,639.25 1179.83,635.083 1191.5,637C 1197.97,639.796 1200.47,644.63 1199,651.5C 1192.83,664.35 1184.33,675.516 1173.5,685C 1169.11,688.862 1164.11,691.695 1158.5,693.5C 1148.02,682.212 1140.85,668.879 1137,653.5C 1134.83,643.857 1137.67,636.19 1145.5,630.5 Z"/>
  </g>
  <g>
    <path fill="#f2399a" d="M 1155.5,637.5 C 1157.36,641.079 1159.03,644.745 1160.5,648.5C 1160.33,653.511 1160.5,658.511 1161,663.5C 1162.18,664.731 1163.35,664.731 1164.5,663.5C 1164.99,661.974 1165.66,660.641 1166.5,659.5C 1169.65,658.526 1171.48,656.526 1172,653.5C 1170.3,655.373 1168.46,657.04 1166.5,658.5C 1170.25,646.557 1178.25,640.724 1190.5,641C 1194.18,645.876 1194.35,651.043 1191,656.5C 1184.25,665.921 1176.75,674.754 1168.5,683C 1165.4,684.966 1162.23,686.8 1159,688.5C 1156.32,686.825 1154.32,684.492 1153,681.5C 1148.7,674.242 1145.53,666.576 1143.5,658.5C 1142.57,650.649 1143.91,643.315 1147.5,636.5C 1150.22,635.233 1152.88,635.566 1155.5,637.5 Z"/>
  </g>
  <g>
    <path fill="#ded9dc" d="M 1147.5,636.5 C 1143.91,643.315 1142.57,650.649 1143.5,658.5C 1140.42,651.307 1140.92,644.307 1145,637.5C 1145.67,636.748 1146.5,636.414 1147.5,636.5 Z"/>
  </g>
  <g>
    <path fill="#fdfdfd" d="M 63.5,642.5 C 77.919,642.012 91.919,644.179 105.5,649C 132.39,664.976 140.556,687.809 130,717.5C 120.683,735.797 105.849,746.963 85.5,751C 79.2455,752.487 72.9122,753.32 66.5,753.5C 65.1659,718.653 63.4993,683.819 61.5,649C 61.6582,646.551 62.3248,644.384 63.5,642.5 Z"/>
  </g>
  <g>
    <path fill="#050505" d="M 640.5,643.5 C 660.667,641.337 676.167,648.67 687,665.5C 696.688,683.252 701.188,702.252 700.5,722.5C 700.227,746.731 697.894,770.731 693.5,794.5C 688.669,795.832 684.169,795.165 680,792.5C 679.502,789.518 679.335,786.518 679.5,783.5C 670.128,787.234 660.461,790.067 650.5,792C 617.647,793.479 600.313,777.813 598.5,745C 599.646,712.858 616.146,695.358 648,692.5C 660.14,692.49 671.306,695.824 681.5,702.5C 682.107,687.834 677.107,675.334 666.5,665C 653.566,656.372 640.566,656.372 627.5,665C 619.686,670.478 613.686,677.478 609.5,686C 604.619,685.98 600.453,684.147 597,680.5C 604.538,660.139 619.038,647.806 640.5,643.5 Z"/>
  </g>
  <g>
    <path fill="#050505" d="M 1074.5,645.5 C 1093.51,641.917 1106.68,648.917 1114,666.5C 1114.86,709.534 1114.03,752.534 1111.5,795.5C 1106.24,795.805 1101.07,795.471 1096,794.5C 1097.14,766.177 1098.47,737.843 1100,709.5C 1100.67,698.5 1100.67,687.5 1100,676.5C 1098.15,661.843 1089.98,656.677 1075.5,661C 1049.51,672.26 1028.68,689.76 1013,713.5C 1010.73,717.714 1008.73,722.047 1007,726.5C 1006.5,747.164 1006.33,767.831 1006.5,788.5C 1002.17,788.5 997.833,788.5 993.5,788.5C 991.771,743.521 991.104,698.521 991.5,653.5C 996.5,653.5 1001.5,653.5 1006.5,653.5C 1006.33,667.504 1006.5,681.504 1007,695.5C 1024.62,672.016 1047.12,655.349 1074.5,645.5 Z"/>
  </g>
  <g>
    <path fill="#dcd3d8" d="M 1155.5,637.5 C 1158.88,640.289 1160.55,643.955 1160.5,648.5C 1159.03,644.745 1157.36,641.079 1155.5,637.5 Z"/>
  </g>
  <g>
    <path fill="#fca5d1" d="M 1150.5,640.5 C 1152.08,646.301 1152.91,652.301 1153,658.5C 1150.9,652.543 1150.07,646.543 1150.5,640.5 Z"/>
  </g>
  <g>
    <path fill="#060304" d="M 432.5,699.5 C 435.664,709.305 436.331,719.305 434.5,729.5C 424.827,761.835 403.161,779.169 369.5,781.5C 342.301,779.813 323.135,766.48 312,741.5C 303.647,719.473 306.647,699.139 321,680.5C 330.182,667.49 342.015,657.657 356.5,651C 383.968,645.154 405.802,653.654 422,676.5C 425.796,684.065 429.296,691.731 432.5,699.5 Z"/>
  </g>
  <g>
    <path fill="#040405" d="M 974.5,698.5 C 977.531,708.661 978.198,718.994 976.5,729.5C 966.996,761.674 945.496,779.007 912,781.5C 877.229,779.062 856.562,760.729 850,726.5C 847.996,691.334 862.829,666.167 894.5,651C 913.34,646.375 930.673,649.709 946.5,661C 953.032,667.198 959.199,673.698 965,680.5C 968.956,686.079 972.123,692.079 974.5,698.5 Z"/>
  </g>
  <g>
    <path fill="#fdbdde" d="M 1153.5,642.5 C 1154.79,643.058 1155.62,644.058 1156,645.5C 1156.84,650.921 1158.01,656.254 1159.5,661.5C 1159.17,661.833 1158.83,662.167 1158.5,662.5C 1156.83,655.834 1155.17,649.167 1153.5,642.5 Z"/>
  </g>
  <g>
    <path fill="#050505" d="M 190.5,782.5 C 190.5,788.167 190.5,793.833 190.5,799.5C 187.615,799.194 184.948,799.527 182.5,800.5C 180.833,800.5 179.167,800.5 177.5,800.5C 174.435,751.554 172.768,702.554 172.5,653.5C 177.5,653.5 182.5,653.5 187.5,653.5C 187.169,661.86 187.502,670.193 188.5,678.5C 197.775,668.2 208.775,660.367 221.5,655C 248.828,649.247 268.995,658.747 282,683.5C 284.776,688.718 287.276,694.051 289.5,699.5C 285.849,703.775 281.182,705.609 275.5,705C 270.337,690.325 261.337,678.658 248.5,670C 226.474,665.994 209.974,673.828 199,693.5C 194.711,702.368 192.044,711.701 191,721.5C 190.5,741.831 190.333,762.164 190.5,782.5 Z"/>
  </g>
  <g>
    <path fill="#050505" d="M 804.5,655.5 C 806.527,655.338 808.527,655.505 810.5,656C 825.623,688.189 830.79,722.022 826,757.5C 823.438,781.9 813.271,802.4 795.5,819C 775.653,833.18 755.987,832.847 736.5,818C 737.859,813.068 740.526,809.235 744.5,806.5C 763.629,817.838 780.463,815.172 795,798.5C 802.892,786.66 807.725,773.66 809.5,759.5C 808.127,759.343 806.793,759.51 805.5,760C 789.501,770.796 772.168,773.463 753.5,768C 733.94,761.047 723.44,747.214 722,726.5C 718.507,694.988 731.674,673.822 761.5,663C 773.048,660.901 784.714,659.901 796.5,660C 799.099,658.205 801.766,656.705 804.5,655.5 Z"/>
  </g>
  <g>
    <path fill="#fbaed7" d="M 1166.5,659.5 C 1166.5,659.167 1166.5,658.833 1166.5,658.5C 1168.46,657.04 1170.3,655.373 1172,653.5C 1171.48,656.526 1169.65,658.526 1166.5,659.5 Z"/>
  </g>
  <g>
    <path fill="#050505" d="M 1376.5,661.5 C 1388.42,660.652 1399.76,662.818 1410.5,668C 1425.47,677.783 1427.3,689.616 1416,703.5C 1406.49,713.668 1395.33,721.502 1382.5,727C 1372.24,730.976 1362.07,735.142 1352,739.5C 1357.73,776.121 1377.9,787.455 1412.5,773.5C 1422.73,768.889 1431.73,762.555 1439.5,754.5C 1443.17,757.5 1446.5,760.833 1449.5,764.5C 1431.09,785.037 1408.09,795.204 1380.5,795C 1361.25,791.084 1348.08,779.917 1341,761.5C 1334.01,741.208 1332.68,720.541 1337,699.5C 1339.22,693.39 1342.22,687.723 1346,682.5C 1350.5,678 1355,673.5 1359.5,669C 1365,665.911 1370.67,663.411 1376.5,661.5 Z"/>
  </g>
  <g>
    <path fill="#050505" d="M 1268.5,685.5 C 1269.04,685.44 1269.38,685.107 1269.5,684.5C 1266.69,683.2 1264.02,683.2 1261.5,684.5C 1243.54,686.828 1225.54,688.828 1207.5,690.5C 1207.5,685.473 1207.16,680.473 1206.5,675.5C 1236.29,671.214 1266.12,667.214 1296,663.5C 1296.83,663.833 1297.67,664.167 1298.5,664.5C 1288.08,683.007 1277.91,701.673 1268,720.5C 1267.51,721.793 1267.34,723.127 1267.5,724.5C 1270.91,724.249 1274.24,724.583 1277.5,725.5C 1278.49,730.12 1278.83,734.786 1278.5,739.5C 1271.14,739.169 1263.8,739.503 1256.5,740.5C 1248.94,753.614 1241.94,766.947 1235.5,780.5C 1261.5,780.417 1287.5,780.083 1313.5,779.5C 1313.5,784.167 1313.5,788.833 1313.5,793.5C 1303.56,794.944 1293.56,795.778 1283.5,796C 1258.84,796.5 1234.17,796.667 1209.5,796.5C 1211.43,790.631 1213.93,784.964 1217,779.5C 1224.3,766.039 1231.8,752.705 1239.5,739.5C 1234.21,738.438 1228.88,737.771 1223.5,737.5C 1223.92,732.507 1224.25,727.507 1224.5,722.5C 1232.86,722.831 1241.19,722.498 1249.5,721.5C 1256.37,709.763 1262.7,697.763 1268.5,685.5 Z"/>
  </g>
  <g>
    <path fill="#f3349a" d="M 380.5,668.5 C 382.102,670.074 384.102,670.741 386.5,670.5C 405.724,677.231 417.891,690.564 423,710.5C 424.625,739.892 411.458,759.392 383.5,769C 358.645,772.652 339.811,763.819 327,742.5C 321.573,728.593 320.239,714.26 323,699.5C 330.605,682.76 343.438,672.26 361.5,668C 367.884,667.249 374.217,667.416 380.5,668.5 Z"/>
  </g>
  <g>
    <path fill="#357dfd" d="M 923.5,668.5 C 924.995,670.345 926.662,670.678 928.5,669.5C 946.611,676.782 958.778,689.782 965,708.5C 968.062,738.111 955.562,757.944 927.5,768C 904.69,772.621 886.19,765.788 872,747.5C 864.318,731.126 862.318,714.126 866,696.5C 878.617,673.608 897.784,664.274 923.5,668.5 Z"/>
  </g>
  <g>
    <path fill="#f0d6e3" d="M 380.5,668.5 C 382.786,668.595 384.786,669.262 386.5,670.5C 384.102,670.741 382.102,670.074 380.5,668.5 Z"/>
  </g>
  <g>
    <path fill="#d9e2f7" d="M 923.5,668.5 C 925.216,668.629 926.883,668.962 928.5,669.5C 926.662,670.678 924.995,670.345 923.5,668.5 Z"/>
  </g>
  <g>
    <path fill="#fcfcfc" d="M 768.5,676.5 C 779.873,676.207 791.206,676.707 802.5,678C 809.389,695.501 812.556,713.668 812,732.5C 805.333,740.509 797.5,747.009 788.5,752C 769.917,759.893 754.417,756.06 742,740.5C 734.667,725.5 734.667,710.5 742,695.5C 748.811,686.167 757.644,679.833 768.5,676.5 Z"/>
  </g>
  <g>
    <path fill="#fbfbfb" d="M 1378.5,676.5 C 1387.71,675.801 1396.37,677.635 1404.5,682C 1408.19,685.196 1408.35,688.696 1405,692.5C 1391.57,705.636 1375.74,714.802 1357.5,720C 1355.5,720.667 1353.5,720.667 1351.5,720C 1350.06,698.955 1359.06,684.455 1378.5,676.5 Z"/>
  </g>
  <g>
    <path fill="#9d9d9d" d="M 1261.5,684.5 C 1264.02,683.2 1266.69,683.2 1269.5,684.5C 1269.38,685.107 1269.04,685.44 1268.5,685.5C 1266.39,684.532 1264.06,684.198 1261.5,684.5 Z"/>
  </g>
  <g>
    <path fill="#fef1f8" d="M 354.5,719.5 C 353.833,722.167 353.167,724.833 352.5,727.5C 351.521,711.941 355.854,698.108 365.5,686C 366.833,685.333 368.167,685.333 369.5,686C 360.022,695.126 355.022,706.293 354.5,719.5 Z"/>
  </g>
  <g>
    <path fill="#e6eeff" d="M 907.5,685.5 C 908.873,685.343 910.207,685.51 911.5,686C 903.369,693.761 898.536,703.261 897,714.5C 896.667,720.167 896.333,725.833 896,731.5C 892.752,714.408 896.585,699.075 907.5,685.5 Z"/>
  </g>
  <g>
    <path fill="#707070" d="M 454.5,688.5 C 454.5,689.833 454.5,691.167 454.5,692.5C 455.791,692.263 456.791,692.596 457.5,693.5C 456.167,693.5 454.833,693.5 453.5,693.5C 453.216,691.585 453.549,689.919 454.5,688.5 Z"/>
  </g>
  <g>
    <path fill="#060606" d="M 1154.5,793.5 C 1153.17,793.5 1151.83,793.5 1150.5,793.5C 1150.5,783.833 1150.5,774.167 1150.5,764.5C 1151.01,749.505 1151.35,734.505 1151.5,719.5C 1152.48,716.713 1152.81,713.713 1152.5,710.5C 1148.83,710.5 1145.17,710.5 1141.5,710.5C 1138.81,709.976 1137.31,708.309 1137,705.5C 1136.5,701.848 1136.33,698.182 1136.5,694.5C 1152.46,695.885 1168.46,696.552 1184.5,696.5C 1184.5,701.5 1184.5,706.5 1184.5,711.5C 1178.5,711.5 1172.5,711.5 1166.5,711.5C 1166.52,738.839 1166.19,766.172 1165.5,793.5C 1161.83,793.5 1158.17,793.5 1154.5,793.5 Z"/>
  </g>
  <g>
    <path fill="#040404" d="M 1519.5,696.5 C 1519.5,701.167 1519.5,705.833 1519.5,710.5C 1513.64,710.178 1507.98,710.511 1502.5,711.5C 1501.5,738.662 1501.17,765.995 1501.5,793.5C 1499.83,793.5 1498.17,793.5 1496.5,793.5C 1492.83,793.5 1489.17,793.5 1485.5,793.5C 1485.5,790.5 1485.5,787.5 1485.5,784.5C 1486.1,760.165 1486.77,735.831 1487.5,711.5C 1483.82,711.665 1480.15,711.499 1476.5,711C 1475.58,710.626 1474.75,710.126 1474,709.5C 1472.67,704.599 1472.17,699.599 1472.5,694.5C 1488.11,695.911 1503.77,696.578 1519.5,696.5 Z"/>
  </g>
  <g>
    <path fill="#fff6fa" d="M 377.5,695.5 C 380.262,706.114 377.762,715.781 370,724.5C 368.914,713.842 371.414,704.175 377.5,695.5 Z"/>
  </g>
  <g>
    <path fill="#f4f7ff" d="M 920.5,694.5 C 922.681,705.761 919.847,715.761 912,724.5C 910.497,713.167 913.33,703.167 920.5,694.5 Z"/>
  </g>
  <g>
    <path fill="#437be7" d="M 974.5,698.5 C 978.4,702.648 980.4,707.648 980.5,713.5C 980.081,719.178 978.747,724.511 976.5,729.5C 978.198,718.994 977.531,708.661 974.5,698.5 Z"/>
  </g>
  <g>
    <path fill="#e24997" d="M 432.5,699.5 C 436.538,703.771 438.538,708.938 438.5,715C 437.845,720.129 436.512,724.962 434.5,729.5C 436.331,719.305 435.664,709.305 432.5,699.5 Z"/>
  </g>
  <g>
    <path fill="#11131d" d="M 953.5,714.5 C 953.5,713.5 953.5,712.5 953.5,711.5C 954.213,704.46 955.213,704.127 956.5,710.5C 956.89,712.982 955.89,714.315 953.5,714.5 Z"/>
  </g>
  <g>
    <path fill="#fee7f3" d="M 412.5,706.5 C 414.557,708.857 414.89,711.524 413.5,714.5C 411.851,715.648 410.351,716.981 409,718.5C 410.035,714.55 411.202,710.55 412.5,706.5 Z"/>
  </g>
  <g>
    <path fill="#fdfdfd" d="M 636.5,708.5 C 645.226,708.161 653.893,708.661 662.5,710C 673.333,714.167 680.833,721.667 685,732.5C 685.41,742.469 684.577,752.302 682.5,762C 673.781,768.526 664.114,773.192 653.5,776C 633.182,780.628 620.016,773.128 614,753.5C 611.454,733.257 618.954,718.257 636.5,708.5 Z"/>
  </g>
  <g>
    <path fill="#5a5a5a" d="M 1141.5,710.5 C 1145.17,710.5 1148.83,710.5 1152.5,710.5C 1152.81,713.713 1152.48,716.713 1151.5,719.5C 1151.5,716.833 1151.5,714.167 1151.5,711.5C 1147.96,711.813 1144.62,711.479 1141.5,710.5 Z"/>
  </g>
  <g>
    <path fill="#5d5d5d" d="M 1519.5,696.5 C 1520.49,701.305 1520.82,706.305 1520.5,711.5C 1514.5,711.5 1508.5,711.5 1502.5,711.5C 1507.98,710.511 1513.64,710.178 1519.5,710.5C 1519.5,705.833 1519.5,701.167 1519.5,696.5 Z"/>
  </g>
  <g>
    <path fill="#afc8ff" d="M 953.5,711.5 C 953.5,712.5 953.5,713.5 953.5,714.5C 952.56,716.612 951.394,718.612 950,720.5C 949.346,721.696 948.846,721.696 948.5,720.5C 950.462,717.567 952.129,714.567 953.5,711.5 Z"/>
  </g>
  <g>
    <path fill="#fbb0d8" d="M 354.5,719.5 C 354.666,723.514 354.499,727.514 354,731.5C 352.812,730.437 352.312,729.103 352.5,727.5C 353.167,724.833 353.833,722.167 354.5,719.5 Z"/>
  </g>
  <g>
    <path fill="#fceff5" d="M 393.5,757.5 C 393.167,757.5 392.833,757.5 392.5,757.5C 393.75,755.068 395.25,752.734 397,750.5C 397.864,753.813 396.698,756.146 393.5,757.5 Z"/>
  </g>
  <g>
    <path fill="#161a27" d="M 932.5,759.5 C 934.091,756.569 936.091,753.902 938.5,751.5C 939.583,752.365 939.749,753.365 939,754.5C 937.223,756.79 935.056,758.457 932.5,759.5 Z"/>
  </g>
  <g>
    <path fill="#784a5f" d="M 392.5,757.5 C 392.833,757.5 393.167,757.5 393.5,757.5C 392.738,759.262 391.404,760.262 389.5,760.5C 390.167,759.167 391.167,758.167 392.5,757.5 Z"/>
  </g>
  <g>
    <path fill="#163163" d="M 932.5,759.5 C 931.746,761.446 930.412,762.279 928.5,762C 929.471,760.519 930.804,759.685 932.5,759.5 Z"/>
  </g>
  <g>
    <path fill="#591638" d="M 389.5,760.5 C 388.998,762.085 387.998,762.585 386.5,762C 387.244,760.961 388.244,760.461 389.5,760.5 Z"/>
  </g>
  <g>
    <path fill="#707070" d="M 1150.5,764.5 C 1150.5,774.167 1150.5,783.833 1150.5,793.5C 1151.83,793.5 1153.17,793.5 1154.5,793.5C 1153.08,794.451 1151.41,794.784 1149.5,794.5C 1149.17,784.319 1149.51,774.319 1150.5,764.5 Z"/>
  </g>
  <g>
    <path fill="#bababa" d="M 1485.5,784.5 C 1485.5,787.5 1485.5,790.5 1485.5,793.5C 1489.17,793.5 1492.83,793.5 1496.5,793.5C 1492.7,794.483 1488.7,794.817 1484.5,794.5C 1484.19,790.958 1484.52,787.625 1485.5,784.5 Z"/>
  </g>
  <g>
    <path fill="#7d7d7d" d="M 190.5,782.5 C 191.49,788.31 191.823,794.31 191.5,800.5C 188.5,800.5 185.5,800.5 182.5,800.5C 184.948,799.527 187.615,799.194 190.5,799.5C 190.5,793.833 190.5,788.167 190.5,782.5 Z"/>
  </g>
  <g>
    <path fill="#7e7e7e" d="M 67.5,783.5 C 68.493,791.984 68.8264,800.651 68.5,809.5C 63.3054,809.821 58.3054,809.487 53.5,808.5C 58.1667,808.5 62.8333,808.5 67.5,808.5C 67.5,800.167 67.5,791.833 67.5,783.5 Z"/>
  </g>
  <g>
    <path fill="#222222" d="M 567.5,860.5 C 569.288,860.215 570.955,860.548 572.5,861.5C 569.645,864.52 566.979,867.687 564.5,871C 563.056,871.781 561.723,871.614 560.5,870.5C 562.859,867.149 565.192,863.815 567.5,860.5 Z"/>
  </g>
  <g>
    <path fill="#151515" d="M 450.5,873.5 C 456.762,872.872 462.762,873.705 468.5,876C 471.892,878.285 473.559,881.452 473.5,885.5C 470.185,885.028 467.851,883.195 466.5,880C 459.816,876.184 453.649,876.684 448,881.5C 447.022,884.669 447.522,887.503 449.5,890C 455.647,892.789 461.98,895.122 468.5,897C 476.7,902.432 477.7,909.099 471.5,917C 462.471,922.939 453.471,922.939 444.5,917C 441.903,914.683 441.07,911.85 442,908.5C 443.011,907.663 444.178,907.33 445.5,907.5C 446.594,914.25 450.594,917.25 457.5,916.5C 466.521,917.31 470.687,913.31 470,904.5C 464.694,899.932 458.527,897.099 451.5,896C 444.079,893.324 441.246,888.158 443,880.5C 445.015,877.588 447.515,875.255 450.5,873.5 Z"/>
  </g>
  <g>
    <path fill="#575757" d="M 527.5,874.5 C 516.5,874.5 505.5,874.5 494.5,874.5C 494.5,875.5 494.5,876.5 494.5,877.5C 494.167,877.5 493.833,877.5 493.5,877.5C 493.5,876.167 493.5,874.833 493.5,873.5C 505.012,873.172 516.346,873.505 527.5,874.5 Z"/>
  </g>
  <g>
    <path fill="#101010" d="M 557.5,873.5 C 570.266,870.793 578.766,875.46 583,887.5C 584.102,895.679 583.435,903.679 581,911.5C 574.989,920.382 566.822,923.215 556.5,920C 552.281,917.448 549.114,913.948 547,909.5C 545.477,901.898 545.144,894.232 546,886.5C 548.3,880.706 552.133,876.373 557.5,873.5 Z"/>
  </g>
  <g>
    <path fill="#131313" d="M 761.5,873.5 C 768.221,872.751 774.554,873.918 780.5,877C 782.782,879.397 784.116,882.231 784.5,885.5C 783.127,885.657 781.793,885.49 780.5,885C 776.379,878.177 770.379,875.843 762.5,878C 755.58,883.095 755.914,887.761 763.5,892C 770.121,893.571 776.454,895.905 782.5,899C 788.687,909.971 785.687,917.304 773.5,921C 765.425,922.641 758.591,920.474 753,914.5C 750.627,911.374 751.127,909.041 754.5,907.5C 756.854,914.015 761.521,917.015 768.5,916.5C 778.219,917.284 782.052,912.951 780,903.5C 779.167,902.667 778.333,901.833 777.5,901C 772.56,899.181 767.56,897.514 762.5,896C 754.585,893.672 751.751,888.505 754,880.5C 755.742,877.254 758.242,874.921 761.5,873.5 Z"/>
  </g>
  <g>
    <path fill="#5e5e5e" d="M 935.5,874.5 C 944.652,873.506 953.985,873.173 963.5,873.5C 963.768,875.099 963.434,876.432 962.5,877.5C 962.5,876.5 962.5,875.5 962.5,874.5C 953.5,874.5 944.5,874.5 935.5,874.5 Z"/>
  </g>
  <g>
    <path fill="#131313" d="M 1192.5,873.5 C 1199.22,872.751 1205.55,873.918 1211.5,877C 1213.78,879.397 1215.12,882.231 1215.5,885.5C 1214.13,885.657 1212.79,885.49 1211.5,885C 1207.38,878.177 1201.38,875.843 1193.5,878C 1186.58,883.095 1186.91,887.761 1194.5,892C 1201.12,893.571 1207.45,895.905 1213.5,899C 1219.69,909.971 1216.69,917.304 1204.5,921C 1196.42,922.641 1189.59,920.474 1184,914.5C 1181.63,911.374 1182.13,909.041 1185.5,907.5C 1187.85,914.015 1192.52,917.015 1199.5,916.5C 1209.22,917.284 1213.05,912.951 1211,903.5C 1210.17,902.667 1209.33,901.833 1208.5,901C 1203.56,899.181 1198.56,897.514 1193.5,896C 1185.58,893.672 1182.75,888.505 1185,880.5C 1186.74,877.254 1189.24,874.921 1192.5,873.5 Z"/>
  </g>
  <g>
    <path fill="#898989" d="M 352.5,894.5 C 351.509,888.021 351.176,881.354 351.5,874.5C 350.167,874.5 348.833,874.5 347.5,874.5C 347.5,889.833 347.5,905.167 347.5,920.5C 346.504,905.009 346.17,889.342 346.5,873.5C 348.5,873.5 350.5,873.5 352.5,873.5C 352.5,880.5 352.5,887.5 352.5,894.5 Z"/>
  </g>
  <g>
    <path fill="#000000" d="M 352.5,894.5 C 360.167,894.5 367.833,894.5 375.5,894.5C 376.491,888.021 376.824,881.354 376.5,874.5C 377.833,874.5 379.167,874.5 380.5,874.5C 380.5,889.833 380.5,905.167 380.5,920.5C 379.167,920.5 377.833,920.5 376.5,920.5C 376.5,913.167 376.5,905.833 376.5,898.5C 368.167,898.5 359.833,898.5 351.5,898.5C 351.5,905.833 351.5,913.167 351.5,920.5C 350.167,920.5 348.833,920.5 347.5,920.5C 347.5,905.167 347.5,889.833 347.5,874.5C 348.833,874.5 350.167,874.5 351.5,874.5C 351.176,881.354 351.509,888.021 352.5,894.5 Z"/>
  </g>
  <g>
    <path fill="#9c9c9c" d="M 380.5,920.5 C 380.5,905.167 380.5,889.833 380.5,874.5C 379.167,874.5 377.833,874.5 376.5,874.5C 376.824,881.354 376.491,888.021 375.5,894.5C 375.5,887.5 375.5,880.5 375.5,873.5C 377.5,873.5 379.5,873.5 381.5,873.5C 381.83,889.342 381.496,905.009 380.5,920.5 Z"/>
  </g>
  <g>
    <path fill="#000000" d="M 409.5,874.5 C 410.833,874.5 412.167,874.5 413.5,874.5C 413.5,889.833 413.5,905.167 413.5,920.5C 412.167,920.5 410.833,920.5 409.5,920.5C 409.5,905.167 409.5,889.833 409.5,874.5 Z"/>
  </g>
  <g>
    <path fill="#707070" d="M 409.5,874.5 C 410.919,873.549 412.585,873.216 414.5,873.5C 414.83,889.342 414.496,905.009 413.5,920.5C 413.5,905.167 413.5,889.833 413.5,874.5C 412.167,874.5 410.833,874.5 409.5,874.5 Z"/>
  </g>
  <g>
    <path fill="#000000" d="M 527.5,874.5 C 527.737,875.791 527.404,876.791 526.5,877.5C 521.833,877.5 517.167,877.5 512.5,877.5C 512.5,891.833 512.5,906.167 512.5,920.5C 511.167,920.5 509.833,920.5 508.5,920.5C 508.5,906.167 508.5,891.833 508.5,877.5C 503.833,877.5 499.167,877.5 494.5,877.5C 494.5,876.5 494.5,875.5 494.5,874.5C 505.5,874.5 516.5,874.5 527.5,874.5 Z"/>
  </g>
  <g>
    <path fill="#777777" d="M 625.5,874.5 C 619.167,874.5 612.833,874.5 606.5,874.5C 606.5,889.833 606.5,905.167 606.5,920.5C 605.504,905.009 605.17,889.342 605.5,873.5C 612.354,873.176 619.021,873.509 625.5,874.5 Z"/>
  </g>
  <g>
    <path fill="#090909" d="M 625.5,874.5 C 637.19,876.88 640.69,883.546 636,894.5C 633.407,897.543 630.24,899.71 626.5,901C 631.372,906.57 635.372,912.737 638.5,919.5C 636.833,920.833 635.167,920.833 633.5,919.5C 630.532,914.036 627.366,908.703 624,903.5C 622.67,902.418 621.17,901.751 619.5,901.5C 616.713,900.523 613.713,900.19 610.5,900.5C 610.5,907.167 610.5,913.833 610.5,920.5C 609.167,920.5 607.833,920.5 606.5,920.5C 606.5,905.167 606.5,889.833 606.5,874.5C 612.833,874.5 619.167,874.5 625.5,874.5 Z"/>
  </g>
  <g>
    <path fill="#4a4a4a" d="M 669.5,874.5 C 668.167,874.5 666.833,874.5 665.5,874.5C 665.5,889.833 665.5,905.167 665.5,920.5C 664.504,905.009 664.17,889.342 664.5,873.5C 666.415,873.216 668.081,873.549 669.5,874.5 Z"/>
  </g>
  <g>
    <path fill="#000000" d="M 669.5,874.5 C 669.5,889.833 669.5,905.167 669.5,920.5C 668.167,920.5 666.833,920.5 665.5,920.5C 665.5,905.167 665.5,889.833 665.5,874.5C 666.833,874.5 668.167,874.5 669.5,874.5 Z"/>
  </g>
  <g>
    <path fill="#0f0f0f" d="M 710.5,873.5 C 712.199,873.34 713.866,873.506 715.5,874C 723.447,888.675 729.114,904.175 732.5,920.5C 730.833,920.5 729.167,920.5 727.5,920.5C 726.974,916.064 725.974,911.731 724.5,907.5C 716.833,906.167 709.167,906.167 701.5,907.5C 699.71,911.658 698.71,915.991 698.5,920.5C 696.833,920.5 695.167,920.5 693.5,920.5C 696.982,904.056 702.648,888.389 710.5,873.5 Z"/>
  </g>
  <g>
    <path fill="#919191" d="M 847.5,920.5 C 847.5,905.167 847.5,889.833 847.5,874.5C 846.167,874.5 844.833,874.5 843.5,874.5C 843.5,889.833 843.5,905.167 843.5,920.5C 842.504,905.009 842.17,889.342 842.5,873.5C 844.5,873.5 846.5,873.5 848.5,873.5C 848.83,889.342 848.496,905.009 847.5,920.5 Z"/>
  </g>
  <g>
    <path fill="#000000" d="M 847.5,920.5 C 846.167,920.5 844.833,920.5 843.5,920.5C 843.5,905.167 843.5,889.833 843.5,874.5C 844.833,874.5 846.167,874.5 847.5,874.5C 847.5,889.833 847.5,905.167 847.5,920.5 Z"/>
  </g>
  <g>
    <path fill="#7c7c7c" d="M 881.5,874.5 C 879.833,874.5 878.167,874.5 876.5,874.5C 876.5,889.833 876.5,905.167 876.5,920.5C 875.504,905.009 875.17,889.342 875.5,873.5C 877.735,873.205 879.735,873.539 881.5,874.5 Z"/>
  </g>
  <g>
    <path fill="#060606" d="M 881.5,874.5 C 889.088,884.6 896.921,894.6 905,904.5C 905.5,894.506 905.666,884.506 905.5,874.5C 906.833,874.5 908.167,874.5 909.5,874.5C 909.171,888.677 909.504,902.677 910.5,916.5C 910.616,919.91 908.95,921.244 905.5,920.5C 905.911,916.537 905.078,912.87 903,909.5C 895.951,900.623 889.117,891.623 882.5,882.5C 882.217,881.711 881.717,881.044 881,880.5C 880.5,893.829 880.333,907.163 880.5,920.5C 879.167,920.5 877.833,920.5 876.5,920.5C 876.5,905.167 876.5,889.833 876.5,874.5C 878.167,874.5 879.833,874.5 881.5,874.5 Z"/>
  </g>
  <g>
    <path fill="#444444" d="M 905.5,874.5 C 906.919,873.549 908.585,873.216 910.5,873.5C 910.5,887.833 910.5,902.167 910.5,916.5C 909.504,902.677 909.171,888.677 909.5,874.5C 908.167,874.5 906.833,874.5 905.5,874.5 Z"/>
  </g>
  <g>
    <path fill="#090909" d="M 935.5,874.5 C 944.5,874.5 953.5,874.5 962.5,874.5C 962.5,875.5 962.5,876.5 962.5,877.5C 955.167,877.5 947.833,877.5 940.5,877.5C 940.5,883.167 940.5,888.833 940.5,894.5C 946.833,894.5 953.167,894.5 959.5,894.5C 959.5,895.5 959.5,896.5 959.5,897.5C 952.978,897.177 946.645,897.51 940.5,898.5C 940.5,905.833 940.5,913.167 940.5,920.5C 938.833,920.5 937.167,920.5 935.5,920.5C 935.5,905.167 935.5,889.833 935.5,874.5 Z"/>
  </g>
  <g>
    <path fill="#0f0f0f" d="M 996.5,873.5 C 998.199,873.34 999.866,873.506 1001.5,874C 1009.45,888.675 1015.11,904.175 1018.5,920.5C 1016.83,920.5 1015.17,920.5 1013.5,920.5C 1012.97,916.064 1011.97,911.731 1010.5,907.5C 1002.83,906.167 995.167,906.167 987.5,907.5C 985.71,911.658 984.71,915.991 984.5,920.5C 982.833,920.5 981.167,920.5 979.5,920.5C 982.982,904.056 988.648,888.389 996.5,873.5 Z"/>
  </g>
  <g>
    <path fill="#444444" d="M 1044.5,874.5 C 1042.83,874.5 1041.17,874.5 1039.5,874.5C 1039.5,889.833 1039.5,905.167 1039.5,920.5C 1038.5,905.009 1038.17,889.342 1038.5,873.5C 1040.74,873.205 1042.74,873.539 1044.5,874.5 Z"/>
  </g>
  <g>
    <path fill="#060606" d="M 1044.5,874.5 C 1051.83,884.167 1059.17,893.833 1066.5,903.5C 1066.78,904.289 1067.28,904.956 1068,905.5C 1068.5,895.172 1068.67,884.839 1068.5,874.5C 1069.83,874.5 1071.17,874.5 1072.5,874.5C 1072.5,889.5 1072.5,904.5 1072.5,919.5C 1071.43,920.434 1070.1,920.768 1068.5,920.5C 1068.79,917.351 1068.29,914.351 1067,911.5C 1059.72,901.215 1052.05,891.215 1044,881.5C 1043.5,894.496 1043.33,907.496 1043.5,920.5C 1042.17,920.5 1040.83,920.5 1039.5,920.5C 1039.5,905.167 1039.5,889.833 1039.5,874.5C 1041.17,874.5 1042.83,874.5 1044.5,874.5 Z"/>
  </g>
  <g>
    <path fill="#b0b0b0" d="M 1068.5,873.5 C 1068.5,873.833 1068.5,874.167 1068.5,874.5C 1068.67,884.839 1068.5,895.172 1068,905.5C 1067.28,904.956 1066.78,904.289 1066.5,903.5C 1067.17,893.5 1067.83,883.5 1068.5,873.5 Z"/>
  </g>
  <g>
    <path fill="#7a7a7a" d="M 1068.5,874.5 C 1068.5,874.167 1068.5,873.833 1068.5,873.5C 1070.17,873.5 1071.83,873.5 1073.5,873.5C 1073.83,889.009 1073.5,904.342 1072.5,919.5C 1072.5,904.5 1072.5,889.5 1072.5,874.5C 1071.17,874.5 1069.83,874.5 1068.5,874.5 Z"/>
  </g>
  <g>
    <path fill="#131313" d="M 1093.5,873.5 C 1104.51,873.333 1115.51,873.5 1126.5,874C 1127.83,875 1127.83,876 1126.5,877C 1121.85,877.499 1117.18,877.666 1112.5,877.5C 1112.5,891.833 1112.5,906.167 1112.5,920.5C 1110.83,920.5 1109.17,920.5 1107.5,920.5C 1107.5,906.167 1107.5,891.833 1107.5,877.5C 1102.83,877.5 1098.17,877.5 1093.5,877.5C 1093.5,876.167 1093.5,874.833 1093.5,873.5 Z"/>
  </g>
  <g>
    <path fill="#010101" d="M 1150.5,874.5 C 1151.83,874.5 1153.17,874.5 1154.5,874.5C 1154.5,889.833 1154.5,905.167 1154.5,920.5C 1153.17,920.5 1151.83,920.5 1150.5,920.5C 1150.5,905.167 1150.5,889.833 1150.5,874.5 Z"/>
  </g>
  <g>
    <path fill="#383838" d="M 1150.5,874.5 C 1151.92,873.549 1153.59,873.216 1155.5,873.5C 1155.83,889.342 1155.5,905.009 1154.5,920.5C 1154.5,905.167 1154.5,889.833 1154.5,874.5C 1153.17,874.5 1151.83,874.5 1150.5,874.5 Z"/>
  </g>
  <g>
    <path fill="#f9f9f9" d="M 559.5,877.5 C 568.578,875.784 574.745,879.118 578,887.5C 578.667,893.833 578.667,900.167 578,906.5C 573.76,916.362 566.593,919.195 556.5,915C 549.553,906.607 547.72,897.107 551,886.5C 552.688,882.315 555.521,879.315 559.5,877.5 Z"/>
  </g>
  <g>
    <path fill="#a8a8a8" d="M 493.5,877.5 C 493.833,877.5 494.167,877.5 494.5,877.5C 499.167,877.5 503.833,877.5 508.5,877.5C 508.5,891.833 508.5,906.167 508.5,920.5C 507.504,906.677 507.171,892.677 507.5,878.5C 502.637,878.819 497.97,878.486 493.5,877.5 Z"/>
  </g>
  <g>
    <path fill="#929292" d="M 526.5,877.5 C 522.366,878.485 518.032,878.818 513.5,878.5C 513.829,892.677 513.496,906.677 512.5,920.5C 512.5,906.167 512.5,891.833 512.5,877.5C 517.167,877.5 521.833,877.5 526.5,877.5 Z"/>
  </g>
  <g>
    <path fill="#a6a6a6" d="M 624.5,878.5 C 620.167,878.5 615.833,878.5 611.5,878.5C 611.5,884.5 611.5,890.5 611.5,896.5C 610.51,890.355 610.177,884.022 610.5,877.5C 615.363,877.181 620.03,877.514 624.5,878.5 Z"/>
  </g>
  <g>
    <path fill="#fbfbfb" d="M 624.5,878.5 C 632.876,880.039 635.376,884.705 632,892.5C 630.421,894.041 628.587,895.208 626.5,896C 621.511,896.499 616.511,896.666 611.5,896.5C 611.5,890.5 611.5,884.5 611.5,878.5C 615.833,878.5 620.167,878.5 624.5,878.5 Z"/>
  </g>
  <g>
    <path fill="#f7f7f7" d="M 722.5,901.5 C 716.167,902.833 709.833,902.833 703.5,901.5C 705.289,893.586 708.456,886.253 713,879.5C 717.235,886.371 720.401,893.704 722.5,901.5 Z"/>
  </g>
  <g>
    <path fill="#f7f7f7" d="M 1008.5,901.5 C 1002.17,902.833 995.833,902.833 989.5,901.5C 991.289,893.586 994.456,886.253 999,879.5C 1003.23,886.371 1006.4,893.704 1008.5,901.5 Z"/>
  </g>
  <g>
    <path fill="#b4b4b4" d="M 882.5,882.5 C 881.833,895.167 881.167,907.833 880.5,920.5C 880.333,907.163 880.5,893.829 881,880.5C 881.717,881.044 882.217,881.711 882.5,882.5 Z"/>
  </g>
  <g>
    <path fill="#414141" d="M 959.5,894.5 C 960.434,895.568 960.768,896.901 960.5,898.5C 953.833,898.5 947.167,898.5 940.5,898.5C 946.645,897.51 952.978,897.177 959.5,897.5C 959.5,896.5 959.5,895.5 959.5,894.5 Z"/>
  </g>
  <g>
    <path fill="#b0b0b0" d="M 619.5,901.5 C 616.833,901.5 614.167,901.5 611.5,901.5C 611.823,908.022 611.49,914.355 610.5,920.5C 610.5,913.833 610.5,907.167 610.5,900.5C 613.713,900.19 616.713,900.523 619.5,901.5 Z"/>
  </g>
  <g>
    <path fill="#747474" d="M 703.5,901.5 C 709.833,902.833 716.167,902.833 722.5,901.5C 723.043,901.56 723.376,901.893 723.5,902.5C 716.5,903.833 709.5,903.833 702.5,902.5C 702.624,901.893 702.957,901.56 703.5,901.5 Z"/>
  </g>
  <g>
    <path fill="#747474" d="M 989.5,901.5 C 995.833,902.833 1002.17,902.833 1008.5,901.5C 1009.04,901.56 1009.38,901.893 1009.5,902.5C 1002.5,903.833 995.5,903.833 988.5,902.5C 988.624,901.893 988.957,901.56 989.5,901.5 Z"/>
  </g>
</svg>