<svg xmlns="http://www.w3.org/2000/svg" xmlns:xlink="http://www.w3.org/1999/xlink" width="500" zoomAndPan="magnify" viewBox="0 0 375 149.999998" height="200" preserveAspectRatio="xMidYMid meet" version="1.2"><defs><clipPath id="8614e93220"><path d="M 271.296875 43.28125 L 282.921875 43.28125 L 282.921875 54.855469 L 271.296875 54.855469 Z M 271.296875 43.28125 "/></clipPath><clipPath id="9ad3f6a21b"><path d="M 272 44 L 285 44 L 285 58 L 272 58 Z M 272 44 "/></clipPath><clipPath id="3404a3af17"><path d="M 275.449219 37.710938 L 288.53125 46.476562 L 278.929688 60.808594 L 265.847656 52.042969 Z M 275.449219 37.710938 "/></clipPath><clipPath id="fcfa6c4c8e"><path d="M 275.449219 37.710938 L 288.53125 46.476562 L 278.929688 60.808594 L 265.847656 52.042969 Z M 275.449219 37.710938 "/></clipPath><clipPath id="b78bbd35f1"><path d="M 274 45 L 277 45 L 277 51 L 274 51 Z M 274 45 "/></clipPath><clipPath id="a7c8d3d31d"><path d="M 275.449219 37.710938 L 288.53125 46.476562 L 278.929688 60.808594 L 265.847656 52.042969 Z M 275.449219 37.710938 "/></clipPath><clipPath id="91ffca2572"><path d="M 275.449219 37.710938 L 288.53125 46.476562 L 278.929688 60.808594 L 265.847656 52.042969 Z M 275.449219 37.710938 "/></clipPath><clipPath id="d3c90e4476"><path d="M 274 45 L 277 45 L 277 55 L 274 55 Z M 274 45 "/></clipPath><clipPath id="a208e357f9"><path d="M 275.449219 37.710938 L 288.53125 46.476562 L 278.929688 60.808594 L 265.847656 52.042969 Z M 275.449219 37.710938 "/></clipPath><clipPath id="9cd141ba8c"><path d="M 275.449219 37.710938 L 288.53125 46.476562 L 278.929688 60.808594 L 265.847656 52.042969 Z M 275.449219 37.710938 "/></clipPath><clipPath id="da0bd3fe82"><path d="M 273 45 L 277 45 L 277 56 L 273 56 Z M 273 45 "/></clipPath><clipPath id="d381321e8a"><path d="M 275.449219 37.710938 L 288.53125 46.476562 L 278.929688 60.808594 L 265.847656 52.042969 Z M 275.449219 37.710938 "/></clipPath><clipPath id="611a0a1096"><path d="M 275.449219 37.710938 L 288.53125 46.476562 L 278.929688 60.808594 L 265.847656 52.042969 Z M 275.449219 37.710938 "/></clipPath><clipPath id="07dc672f69"><path d="M 275 46 L 278 46 L 278 56 L 275 56 Z M 275 46 "/></clipPath><clipPath id="a5969ef339"><path d="M 275.449219 37.710938 L 288.53125 46.476562 L 278.929688 60.808594 L 265.847656 52.042969 Z M 275.449219 37.710938 "/></clipPath><clipPath id="c6b06635b0"><path d="M 275.449219 37.710938 L 288.53125 46.476562 L 278.929688 60.808594 L 265.847656 52.042969 Z M 275.449219 37.710938 "/></clipPath><clipPath id="5ba42de806"><path d="M 274 46 L 282 46 L 282 57 L 274 57 Z M 274 46 "/></clipPath><clipPath id="6a661150cc"><path d="M 275.449219 37.710938 L 288.53125 46.476562 L 278.929688 60.808594 L 265.847656 52.042969 Z M 275.449219 37.710938 "/></clipPath><clipPath id="4806ca2f74"><path d="M 275.449219 37.710938 L 288.53125 46.476562 L 278.929688 60.808594 L 265.847656 52.042969 Z M 275.449219 37.710938 "/></clipPath><clipPath id="44626f172a"><path d="M 275 46 L 283 46 L 283 57 L 275 57 Z M 275 46 "/></clipPath><clipPath id="3d8abdc456"><path d="M 275.449219 37.710938 L 288.53125 46.476562 L 278.929688 60.808594 L 265.847656 52.042969 Z M 275.449219 37.710938 "/></clipPath><clipPath id="376ae719bb"><path d="M 275.449219 37.710938 L 288.53125 46.476562 L 278.929688 60.808594 L 265.847656 52.042969 Z M 275.449219 37.710938 "/></clipPath><clipPath id="701aa12c99"><path d="M 276 47 L 284 47 L 284 57 L 276 57 Z M 276 47 "/></clipPath><clipPath id="d467326c9c"><path d="M 275.449219 37.710938 L 288.53125 46.476562 L 278.929688 60.808594 L 265.847656 52.042969 Z M 275.449219 37.710938 "/></clipPath><clipPath id="a95edb6336"><path d="M 275.449219 37.710938 L 288.53125 46.476562 L 278.929688 60.808594 L 265.847656 52.042969 Z M 275.449219 37.710938 "/></clipPath><clipPath id="d027b1457d"><path d="M 277 47 L 284 47 L 284 56 L 277 56 Z M 277 47 "/></clipPath><clipPath id="e71eab60d2"><path d="M 275.449219 37.710938 L 288.53125 46.476562 L 278.929688 60.808594 L 265.847656 52.042969 Z M 275.449219 37.710938 "/></clipPath><clipPath id="577e59bd50"><path d="M 275.449219 37.710938 L 288.53125 46.476562 L 278.929688 60.808594 L 265.847656 52.042969 Z M 275.449219 37.710938 "/></clipPath><clipPath id="8d39eb962c"><path d="M 276 47 L 283 47 L 283 53 L 276 53 Z M 276 47 "/></clipPath><clipPath id="1ea09d1ffe"><path d="M 275.449219 37.710938 L 288.53125 46.476562 L 278.929688 60.808594 L 265.847656 52.042969 Z M 275.449219 37.710938 "/></clipPath><clipPath id="648cc091a6"><path d="M 275.449219 37.710938 L 288.53125 46.476562 L 278.929688 60.808594 L 265.847656 52.042969 Z M 275.449219 37.710938 "/></clipPath><clipPath id="09edecc84a"><path d="M 277 47 L 283 47 L 283 55 L 277 55 Z M 277 47 "/></clipPath><clipPath id="9248c3a236"><path d="M 275.449219 37.710938 L 288.53125 46.476562 L 278.929688 60.808594 L 265.847656 52.042969 Z M 275.449219 37.710938 "/></clipPath><clipPath id="5c9759f758"><path d="M 275.449219 37.710938 L 288.53125 46.476562 L 278.929688 60.808594 L 265.847656 52.042969 Z M 275.449219 37.710938 "/></clipPath><clipPath id="3409a0a0fa"><path d="M 277 47 L 284 47 L 284 55 L 277 55 Z M 277 47 "/></clipPath><clipPath id="bfbb691a8b"><path d="M 275.449219 37.710938 L 288.53125 46.476562 L 278.929688 60.808594 L 265.847656 52.042969 Z M 275.449219 37.710938 "/></clipPath><clipPath id="f43e236718"><path d="M 275.449219 37.710938 L 288.53125 46.476562 L 278.929688 60.808594 L 265.847656 52.042969 Z M 275.449219 37.710938 "/></clipPath><clipPath id="471fd6ee7d"><path d="M 271 43 L 286 43 L 286 59 L 271 59 Z M 271 43 "/></clipPath><clipPath id="4eb06257ac"><path d="M 275.449219 37.710938 L 288.53125 46.476562 L 278.929688 60.808594 L 265.847656 52.042969 Z M 275.449219 37.710938 "/></clipPath><clipPath id="aa70f8c3eb"><path d="M 275.449219 37.710938 L 288.53125 46.476562 L 278.929688 60.808594 L 265.847656 52.042969 Z M 275.449219 37.710938 "/></clipPath><clipPath id="5c8c10d8c3"><path d="M 352.253906 43.28125 L 363.878906 43.28125 L 363.878906 54.855469 L 352.253906 54.855469 Z M 352.253906 43.28125 "/></clipPath><clipPath id="14c3f158d0"><path d="M 350 41 L 365 41 L 365 56 L 350 56 Z M 350 41 "/></clipPath><clipPath id="d9adb7a923"><path d="M 346.328125 46.40625 L 361.925781 37.421875 L 370.160156 51.722656 L 354.5625 60.703125 Z M 346.328125 46.40625 "/></clipPath><clipPath id="69f8c3e81e"><path d="M 346.328125 46.40625 L 361.925781 37.421875 L 370.160156 51.722656 L 354.5625 60.703125 Z M 346.328125 46.40625 "/></clipPath><clipPath id="98d398369f"><path d="M 348 40 L 366 40 L 366 57 L 348 57 Z M 348 40 "/></clipPath><clipPath id="f49205a9bd"><path d="M 346.328125 46.40625 L 361.925781 37.421875 L 370.160156 51.722656 L 354.5625 60.703125 Z M 346.328125 46.40625 "/></clipPath><clipPath id="469ada7f57"><path d="M 346.328125 46.40625 L 361.925781 37.421875 L 370.160156 51.722656 L 354.5625 60.703125 Z M 346.328125 46.40625 "/></clipPath><clipPath id="4f0eb69dd2"><path d="M 72 49.066406 L 103 49.066406 L 103 80 L 72 80 Z M 72 49.066406 "/></clipPath></defs><g id="ccbd3437a9"><g style="fill:#ffffff;fill-opacity:1;"><g transform="translate(7.218019, 87.475002)"><path style="stroke:none" d="M 14.5 -40.203125 C 12.632812 -40.742188 10.570312 -41.015625 8.3125 -41.015625 C 6.75 -41.015625 5.96875 -40.851562 5.96875 -40.53125 C 5.96875 -39.46875 6.164062 -34.835938 6.5625 -26.640625 C 7 -18.472656 7.253906 -14.351562 7.328125 -14.28125 L 7.390625 -14.28125 C 7.640625 -14.28125 8.695312 -14.441406 10.5625 -14.765625 C 14.5 -15.566406 17.5625 -17.023438 19.75 -19.140625 C 21.96875 -21.296875 23.171875 -23.992188 23.359375 -27.234375 C 23.390625 -27.566406 23.40625 -28.039062 23.40625 -28.65625 C 23.40625 -31.175781 22.675781 -33.421875 21.21875 -35.390625 C 19.4375 -37.898438 17.195312 -39.503906 14.5 -40.203125 Z M 1.96875 -45.125 C 1.96875 -45.488281 2.570312 -45.671875 3.78125 -45.671875 C 4.875 -45.671875 5.472656 -45.488281 5.578125 -45.125 C 5.691406 -44.90625 6.347656 -44.796875 7.546875 -44.796875 L 9.140625 -44.796875 C 14.347656 -44.796875 18.6875 -43.171875 22.15625 -39.921875 C 25.613281 -36.640625 27.34375 -32.738281 27.34375 -28.21875 C 27.34375 -25.375 26.578125 -22.625 25.046875 -19.96875 C 23.703125 -17.632812 21.609375 -15.628906 18.765625 -13.953125 C 15.921875 -12.273438 12.894531 -11.253906 9.6875 -10.890625 C 9.175781 -10.816406 8.390625 -10.722656 7.328125 -10.609375 C 7.367188 -9.804688 7.425781 -8.203125 7.5 -5.796875 C 7.53125 -5.035156 7.566406 -3.46875 7.609375 -1.09375 L 4 -1.09375 C 3.957031 -1.425781 3.9375 -2.082031 3.9375 -3.0625 C 3.90625 -3.863281 3.851562 -4.648438 3.78125 -5.421875 C 3.707031 -6.179688 3.648438 -7.128906 3.609375 -8.265625 C 3.578125 -9.429688 3.503906 -10.125 3.390625 -10.34375 C 3.285156 -10.5625 2.941406 -10.671875 2.359375 -10.671875 C 1.773438 -10.671875 1.425781 -10.742188 1.3125 -10.890625 C 1.238281 -11.035156 1.203125 -11.546875 1.203125 -12.421875 C 1.203125 -13.253906 1.257812 -13.765625 1.375 -13.953125 C 1.476562 -14.128906 1.75 -14.21875 2.1875 -14.21875 C 2.625 -14.21875 2.898438 -14.328125 3.015625 -14.546875 C 3.085938 -14.765625 3.125 -15.457031 3.125 -16.625 L 3.125 -17.5625 C 3.125 -20.363281 2.941406 -25.410156 2.578125 -32.703125 C 2.171875 -40.722656 1.96875 -44.863281 1.96875 -45.125 Z M 1.96875 -45.125 "/></g></g><g style="fill:#ffffff;fill-opacity:1;"><g transform="translate(38.560902, 87.475002)"><path style="stroke:none" d="M 14.609375 -38.390625 C 15.296875 -38.535156 15.96875 -38.609375 16.625 -38.609375 C 19.832031 -38.609375 22.785156 -37.1875 25.484375 -34.34375 C 25.960938 -33.832031 26.726562 -32.613281 27.78125 -30.6875 C 28.875 -28.71875 29.421875 -27.550781 29.421875 -27.1875 C 29.421875 -27.039062 28.96875 -26.765625 28.0625 -26.359375 C 27.144531 -25.960938 26.539062 -25.765625 26.25 -25.765625 C 26 -25.765625 25.582031 -26.53125 25 -28.0625 C 24.445312 -29.375 23.644531 -30.648438 22.59375 -31.890625 C 21.53125 -33.128906 20.523438 -33.945312 19.578125 -34.34375 C 18.742188 -34.707031 17.816406 -34.890625 16.796875 -34.890625 C 15.003906 -34.890625 13.253906 -34.304688 11.546875 -33.140625 C 9.867188 -31.972656 8.519531 -30.425781 7.5 -28.5 C 6.800781 -27.039062 6.304688 -25.398438 6.015625 -23.578125 C 5.691406 -21.753906 5.53125 -19.109375 5.53125 -15.640625 C 5.53125 -15.273438 5.546875 -14.710938 5.578125 -13.953125 L 5.578125 -12.203125 C 5.617188 -10.234375 5.675781 -7.257812 5.75 -3.28125 C 5.488281 -3.28125 4.957031 -3.242188 4.15625 -3.171875 C 3.863281 -3.171875 3.300781 -3.117188 2.46875 -3.015625 C 2.425781 -3.847656 2.332031 -5.488281 2.1875 -7.9375 C 1.53125 -20.582031 1.203125 -29.476562 1.203125 -34.625 L 1.203125 -38.453125 L 4.765625 -38.453125 L 4.765625 -35.546875 C 4.765625 -33.617188 4.835938 -32.582031 4.984375 -32.4375 L 5.03125 -32.4375 C 5.289062 -32.4375 5.929688 -32.984375 6.953125 -34.078125 C 8.046875 -35.171875 9.285156 -36.117188 10.671875 -36.921875 C 12.015625 -37.722656 13.328125 -38.210938 14.609375 -38.390625 Z M 14.609375 -38.390625 "/></g></g><g style="fill:#ffffff;fill-opacity:1;"><g transform="translate(71.981619, 87.475002)"><path style="stroke:none" d="M 19.96875 -35.109375 C 19.09375 -35.472656 17.867188 -35.65625 16.296875 -35.65625 C 14.441406 -35.65625 13.019531 -35.421875 12.03125 -34.953125 C 10.976562 -34.472656 9.867188 -33.578125 8.703125 -32.265625 C 7.535156 -30.953125 6.660156 -29.601562 6.078125 -28.21875 C 5.347656 -26.6875 4.984375 -24.789062 4.984375 -22.53125 C 4.984375 -21 5.164062 -19.796875 5.53125 -18.921875 C 7.238281 -14.585938 10.171875 -12.253906 14.328125 -11.921875 L 14.765625 -11.921875 C 14.984375 -11.890625 15.148438 -11.875 15.265625 -11.875 C 17.523438 -11.875 19.582031 -12.507812 21.4375 -13.78125 C 23.257812 -15.09375 24.59375 -16.828125 25.4375 -18.984375 C 25.945312 -20.367188 26.203125 -22.007812 26.203125 -23.90625 C 26.203125 -26.488281 25.800781 -28.601562 25 -30.25 C 23.832031 -32.582031 22.15625 -34.203125 19.96875 -35.109375 Z M 13.234375 -39.328125 C 13.710938 -39.472656 14.425781 -39.546875 15.375 -39.546875 C 17.8125 -39.546875 19.890625 -39.125 21.609375 -38.28125 C 24.234375 -37.113281 26.289062 -35.253906 27.78125 -32.703125 C 29.3125 -30.117188 30.078125 -27.257812 30.078125 -24.125 C 30.078125 -22.039062 29.710938 -20 28.984375 -18 C 26.722656 -11.613281 22.078125 -8.382812 15.046875 -8.3125 L 14.0625 -8.3125 C 12.414062 -8.3125 10.789062 -8.710938 9.1875 -9.515625 C 6.675781 -10.753906 4.707031 -12.578125 3.28125 -14.984375 C 1.894531 -17.390625 1.203125 -20.085938 1.203125 -23.078125 C 1.203125 -23.773438 1.222656 -24.304688 1.265625 -24.671875 C 1.515625 -27.953125 2.804688 -31.015625 5.140625 -33.859375 C 7.472656 -36.703125 10.171875 -38.523438 13.234375 -39.328125 Z M 13.234375 -39.328125 "/></g></g><g style="fill:#ffffff;fill-opacity:1;"><g transform="translate(106.058495, 87.475002)"><path style="stroke:none" d="M 10.453125 -43.75 C 10.523438 -43.863281 10.578125 -43.992188 10.609375 -44.140625 L 10.78125 -44.46875 C 10.8125 -44.570312 10.847656 -44.695312 10.890625 -44.84375 C 10.960938 -44.957031 11 -45.03125 11 -45.0625 L 11.109375 -45.28125 C 11.140625 -45.351562 11.175781 -45.410156 11.21875 -45.453125 C 11.25 -45.554688 11.285156 -45.628906 11.328125 -45.671875 C 11.398438 -45.703125 11.453125 -45.71875 11.484375 -45.71875 C 11.523438 -45.757812 11.5625 -45.78125 11.59375 -45.78125 C 11.664062 -45.8125 11.738281 -45.828125 11.8125 -45.828125 C 12.101562 -45.828125 12.78125 -45.609375 13.84375 -45.171875 C 14.164062 -45.066406 14.328125 -44.847656 14.328125 -44.515625 C 14.328125 -44.078125 13.726562 -41.984375 12.53125 -38.234375 C 11.03125 -33.859375 10.335938 -31.597656 10.453125 -31.453125 C 10.554688 -31.378906 13.289062 -30.90625 18.65625 -30.03125 C 20.4375 -29.738281 23.113281 -29.316406 26.6875 -28.765625 L 26.6875 -27.296875 C 26.6875 -26.234375 26.46875 -25.628906 26.03125 -25.484375 C 26 -25.484375 25.960938 -25.46875 25.921875 -25.4375 L 25.703125 -25.4375 C 24.722656 -25.4375 22.023438 -25.765625 17.609375 -26.421875 C 13.453125 -27.078125 10.992188 -27.40625 10.234375 -27.40625 C 9.828125 -27.40625 9.585938 -27.347656 9.515625 -27.234375 C 9.296875 -26.867188 9.097656 -25.8125 8.921875 -24.0625 C 8.734375 -22.28125 8.640625 -20.476562 8.640625 -18.65625 L 8.640625 -18 C 8.710938 -12.382812 10.132812 -8.554688 12.90625 -6.515625 C 13.632812 -5.929688 15.039062 -5.640625 17.125 -5.640625 C 18.46875 -5.640625 19.429688 -5.726562 20.015625 -5.90625 C 20.566406 -6.050781 21.296875 -6.378906 22.203125 -6.890625 C 24.898438 -8.566406 26.359375 -11.03125 26.578125 -14.28125 L 26.75 -16.578125 L 30.25 -16.578125 L 30.25 -14.390625 C 30.25 -10.960938 28.914062 -7.972656 26.25 -5.421875 C 23.59375 -2.898438 20.53125 -1.640625 17.0625 -1.640625 C 16.082031 -1.640625 15.023438 -1.785156 13.890625 -2.078125 C 11.703125 -2.703125 9.828125 -4.050781 8.265625 -6.125 C 6.734375 -8.164062 5.710938 -10.664062 5.203125 -13.625 C 5.015625 -14.820312 4.921875 -16.316406 4.921875 -18.109375 C 4.921875 -21.171875 5.101562 -23.992188 5.46875 -26.578125 C 5.539062 -26.984375 5.613281 -27.585938 5.6875 -28.390625 C 5.320312 -28.460938 4.554688 -28.570312 3.390625 -28.71875 C 3.023438 -28.789062 2.296875 -28.878906 1.203125 -28.984375 C 1.242188 -29.203125 1.316406 -29.601562 1.421875 -30.1875 C 1.609375 -31.320312 1.703125 -31.925781 1.703125 -32 C 1.703125 -32.289062 1.972656 -32.4375 2.515625 -32.4375 C 2.628906 -32.4375 3.175781 -32.398438 4.15625 -32.328125 C 4.707031 -32.253906 5.566406 -32.179688 6.734375 -32.109375 C 6.984375 -32.867188 7.472656 -34.414062 8.203125 -36.75 C 9.554688 -40.976562 10.304688 -43.3125 10.453125 -43.75 Z M 10.453125 -43.75 "/></g></g><g style="fill:#ffffff;fill-opacity:1;"><g transform="translate(140.29941, 87.475002)"><path style="stroke:none" d="M 18.984375 -24.015625 C 17.890625 -24.773438 16.335938 -25.191406 14.328125 -25.265625 L 13.453125 -25.265625 C 11.890625 -25.265625 10.78125 -25.082031 10.125 -24.71875 C 6.945312 -22.894531 5.359375 -20.035156 5.359375 -16.140625 C 5.359375 -13.804688 6.035156 -12 7.390625 -10.71875 C 8.703125 -9.40625 10.414062 -8.75 12.53125 -8.75 C 14.9375 -8.75 17.453125 -9.585938 20.078125 -11.265625 C 20.515625 -11.554688 21.1875 -11.976562 22.09375 -12.53125 C 22.164062 -13.144531 22.273438 -14.347656 22.421875 -16.140625 C 22.535156 -17.265625 22.59375 -18.082031 22.59375 -18.59375 C 22.59375 -19.394531 22.265625 -20.289062 21.609375 -21.28125 C 20.804688 -22.476562 19.929688 -23.390625 18.984375 -24.015625 Z M 8.53125 -39.703125 C 10.101562 -40.429688 11.800781 -40.796875 13.625 -40.796875 C 19.96875 -40.796875 23.976562 -36.566406 25.65625 -28.109375 C 26.019531 -25.992188 26.203125 -24.023438 26.203125 -22.203125 C 26.203125 -21.660156 26.164062 -20.382812 26.09375 -18.375 C 25.976562 -15.53125 25.757812 -12.5625 25.4375 -9.46875 C 25.101562 -6.363281 24.8125 -4.6875 24.5625 -4.4375 C 24.5625 -4.394531 24.429688 -4.375 24.171875 -4.375 C 23.734375 -4.375 23.222656 -4.429688 22.640625 -4.546875 C 21.984375 -4.648438 21.566406 -4.757812 21.390625 -4.875 C 21.171875 -4.976562 21.0625 -5.175781 21.0625 -5.46875 C 21.0625 -5.757812 21.078125 -6 21.109375 -6.1875 C 21.179688 -6.988281 21.109375 -7.351562 20.890625 -7.28125 C 18.773438 -6.363281 17.226562 -5.757812 16.25 -5.46875 C 15.300781 -5.21875 14.132812 -5.09375 12.75 -5.09375 C 9.394531 -5.09375 6.710938 -6.128906 4.703125 -8.203125 C 2.660156 -10.242188 1.640625 -12.925781 1.640625 -16.25 L 1.640625 -16.734375 C 1.679688 -16.921875 1.703125 -17.066406 1.703125 -17.171875 C 1.953125 -20.742188 3.191406 -23.625 5.421875 -25.8125 C 7.679688 -27.96875 10.503906 -29.0625 13.890625 -29.09375 C 15.347656 -29.09375 16.476562 -28.96875 17.28125 -28.71875 C 18.082031 -28.457031 19.613281 -27.742188 21.875 -26.578125 L 21.9375 -26.578125 C 22.007812 -26.578125 22.046875 -26.6875 22.046875 -26.90625 C 22.046875 -27.75 21.679688 -29.191406 20.953125 -31.234375 C 20.253906 -33.128906 19.269531 -34.601562 18 -35.65625 C 16.71875 -36.71875 15.3125 -37.25 13.78125 -37.25 C 12.25 -37.25 10.738281 -36.8125 9.25 -35.9375 C 7.75 -35.0625 6.546875 -33.929688 5.640625 -32.546875 C 4.835938 -31.265625 4.398438 -30.550781 4.328125 -30.40625 C 4.328125 -30.375 4.289062 -30.359375 4.21875 -30.359375 C 3.882812 -30.359375 3.300781 -30.59375 2.46875 -31.0625 C 1.625 -31.539062 1.203125 -31.890625 1.203125 -32.109375 C 1.203125 -32.398438 1.660156 -33.203125 2.578125 -34.515625 C 3.484375 -35.828125 4.25 -36.773438 4.875 -37.359375 C 5.820312 -38.234375 7.039062 -39.015625 8.53125 -39.703125 Z M 8.53125 -39.703125 "/></g></g><g style="fill:#ffffff;fill-opacity:1;"><g transform="translate(170.494015, 87.475002)"><path style="stroke:none" d="M 20.5625 -32.4375 C 20.269531 -32.613281 18.832031 -32.738281 16.25 -32.8125 C 15.988281 -32.8125 15.640625 -32.832031 15.203125 -32.875 L 14.328125 -32.875 C 12.796875 -32.875 11.410156 -32.582031 10.171875 -32 C 8.460938 -31.125 7.171875 -30.066406 6.296875 -28.828125 C 5.421875 -27.585938 4.851562 -25.925781 4.59375 -23.84375 C 4.5625 -23.550781 4.546875 -23.132812 4.546875 -22.59375 C 4.546875 -20.113281 5.328125 -18.050781 6.890625 -16.40625 C 8.492188 -14.726562 10.519531 -13.890625 12.96875 -13.890625 C 13.4375 -13.890625 13.800781 -13.910156 14.0625 -13.953125 C 16.539062 -14.242188 18.816406 -15.445312 20.890625 -17.5625 L 22.859375 -19.53125 C 22.828125 -20.070312 22.753906 -21.144531 22.640625 -22.75 C 22.535156 -24.28125 22.226562 -26.195312 21.71875 -28.5 C 21.207031 -30.832031 20.820312 -32.144531 20.5625 -32.4375 Z M 19.140625 -36.859375 C 19.140625 -37.117188 19.5625 -37.375 20.40625 -37.625 C 21.238281 -37.882812 21.859375 -38.015625 22.265625 -38.015625 C 22.515625 -38.015625 22.953125 -37.140625 23.578125 -35.390625 C 24.160156 -33.597656 24.722656 -31.644531 25.265625 -29.53125 C 26.109375 -26.070312 26.53125 -22.554688 26.53125 -18.984375 C 26.53125 -13.984375 25.671875 -9.535156 23.953125 -5.640625 C 22.203125 -1.765625 19.78125 1.007812 16.6875 2.6875 C 15.257812 3.519531 13.765625 3.9375 12.203125 3.9375 C 10.628906 3.9375 8.929688 3.484375 7.109375 2.578125 C 6.523438 2.285156 5.632812 1.847656 4.4375 1.265625 C 4.539062 1.078125 4.738281 0.710938 5.03125 0.171875 C 5.394531 -0.566406 5.6875 -1.0625 5.90625 -1.3125 C 6.09375 -1.570312 6.3125 -1.703125 6.5625 -1.703125 C 6.78125 -1.703125 7.382812 -1.445312 8.375 -0.9375 C 9.570312 -0.3125 10.8125 0 12.09375 0 C 14.09375 0 15.929688 -0.820312 17.609375 -2.46875 C 19.253906 -4.101562 20.550781 -6.453125 21.5 -9.515625 C 22.007812 -11.160156 22.265625 -12.144531 22.265625 -12.46875 C 22.265625 -12.832031 22.132812 -13.015625 21.875 -13.015625 C 21.625 -13.015625 21.097656 -12.742188 20.296875 -12.203125 C 18.210938 -10.890625 15.929688 -10.234375 13.453125 -10.234375 C 12.835938 -10.234375 12.382812 -10.25 12.09375 -10.28125 C 9.863281 -10.394531 7.835938 -11.050781 6.015625 -12.25 C 4.191406 -13.457031 2.828125 -15.046875 1.921875 -17.015625 C 1.335938 -18.210938 1.046875 -20.195312 1.046875 -22.96875 C 1.078125 -24.90625 1.164062 -26.203125 1.3125 -26.859375 C 1.425781 -27.515625 1.71875 -28.296875 2.1875 -29.203125 C 3.425781 -31.535156 5.234375 -33.378906 7.609375 -34.734375 C 10.015625 -36.117188 12.617188 -36.8125 15.421875 -36.8125 C 16.117188 -36.8125 16.628906 -36.789062 16.953125 -36.75 C 17.285156 -36.71875 17.722656 -36.703125 18.265625 -36.703125 C 18.847656 -36.703125 19.140625 -36.753906 19.140625 -36.859375 Z M 19.140625 -36.859375 "/></g></g><g style="fill:#ffffff;fill-opacity:1;"><g transform="translate(201.071379, 87.475002)"><path style="stroke:none" d="M 19.96875 -35.109375 C 19.09375 -35.472656 17.867188 -35.65625 16.296875 -35.65625 C 14.441406 -35.65625 13.019531 -35.421875 12.03125 -34.953125 C 10.976562 -34.472656 9.867188 -33.578125 8.703125 -32.265625 C 7.535156 -30.953125 6.660156 -29.601562 6.078125 -28.21875 C 5.347656 -26.6875 4.984375 -24.789062 4.984375 -22.53125 C 4.984375 -21 5.164062 -19.796875 5.53125 -18.921875 C 7.238281 -14.585938 10.171875 -12.253906 14.328125 -11.921875 L 14.765625 -11.921875 C 14.984375 -11.890625 15.148438 -11.875 15.265625 -11.875 C 17.523438 -11.875 19.582031 -12.507812 21.4375 -13.78125 C 23.257812 -15.09375 24.59375 -16.828125 25.4375 -18.984375 C 25.945312 -20.367188 26.203125 -22.007812 26.203125 -23.90625 C 26.203125 -26.488281 25.800781 -28.601562 25 -30.25 C 23.832031 -32.582031 22.15625 -34.203125 19.96875 -35.109375 Z M 13.234375 -39.328125 C 13.710938 -39.472656 14.425781 -39.546875 15.375 -39.546875 C 17.8125 -39.546875 19.890625 -39.125 21.609375 -38.28125 C 24.234375 -37.113281 26.289062 -35.253906 27.78125 -32.703125 C 29.3125 -30.117188 30.078125 -27.257812 30.078125 -24.125 C 30.078125 -22.039062 29.710938 -20 28.984375 -18 C 26.722656 -11.613281 22.078125 -8.382812 15.046875 -8.3125 L 14.0625 -8.3125 C 12.414062 -8.3125 10.789062 -8.710938 9.1875 -9.515625 C 6.675781 -10.753906 4.707031 -12.578125 3.28125 -14.984375 C 1.894531 -17.390625 1.203125 -20.085938 1.203125 -23.078125 C 1.203125 -23.773438 1.222656 -24.304688 1.265625 -24.671875 C 1.515625 -27.953125 2.804688 -31.015625 5.140625 -33.859375 C 7.472656 -36.703125 10.171875 -38.523438 13.234375 -39.328125 Z M 13.234375 -39.328125 "/></g></g><g style="fill:#ffffff;fill-opacity:1;"><g transform="translate(235.148243, 87.475002)"><path style="stroke:none" d="M 19.6875 -39.875 C 20.675781 -40.195312 21.84375 -40.359375 23.1875 -40.359375 C 24.6875 -40.359375 25.816406 -40.195312 26.578125 -39.875 C 27.421875 -39.539062 28.207031 -38.9375 28.9375 -38.0625 C 29.664062 -37.226562 30.175781 -36.316406 30.46875 -35.328125 C 30.6875 -34.492188 30.796875 -32.160156 30.796875 -28.328125 C 30.796875 -24.140625 30.648438 -18.960938 30.359375 -12.796875 C 30.242188 -10.972656 30.097656 -8.203125 29.921875 -4.484375 C 29.585938 -4.453125 28.945312 -4.414062 28 -4.375 L 27.40625 -4.375 C 26.53125 -4.375 26.09375 -4.503906 26.09375 -4.765625 C 26.09375 -5.085938 26.289062 -8.710938 26.6875 -15.640625 C 27.09375 -22.535156 27.296875 -27.019531 27.296875 -29.09375 C 27.296875 -31.570312 27.128906 -33.320312 26.796875 -34.34375 C 26.503906 -35.363281 26.03125 -36.078125 25.375 -36.484375 C 24.90625 -36.734375 24.304688 -36.859375 23.578125 -36.859375 C 20.984375 -36.859375 17.789062 -35.347656 14 -32.328125 C 10.207031 -29.335938 7.382812 -26.054688 5.53125 -22.484375 C 5.269531 -21.859375 5.101562 -21.421875 5.03125 -21.171875 C 4.925781 -20.878906 4.835938 -20.457031 4.765625 -19.90625 C 4.691406 -19.363281 4.65625 -18.617188 4.65625 -17.671875 C 4.65625 -16.023438 4.671875 -14.566406 4.703125 -13.296875 C 4.742188 -11.691406 4.78125 -9.285156 4.8125 -6.078125 L 1.703125 -6.078125 C 1.628906 -6.515625 1.535156 -7.441406 1.421875 -8.859375 C 1.316406 -9.878906 1.207031 -15.296875 1.09375 -25.109375 C 1.09375 -28.054688 1.078125 -32.503906 1.046875 -38.453125 L 4.65625 -38.453125 L 4.65625 -28.109375 C 4.90625 -28.398438 5.453125 -29.019531 6.296875 -29.96875 C 10.410156 -34.820312 14.875 -38.125 19.6875 -39.875 Z M 19.6875 -39.875 "/></g></g><g style="fill:#ffffff;fill-opacity:1;"><g transform="translate(269.935968, 87.475002)"><path style="stroke:none" d="M 1.203125 -26.90625 L 1.203125 -28.609375 C 1.898438 -28.566406 3.304688 -28.492188 5.421875 -28.390625 C 7.972656 -28.203125 9.90625 -28.109375 11.21875 -28.109375 L 12.6875 -28.109375 L 12.6875 -24.5625 L 8.375 -24.5625 C 8.332031 -22.332031 8.296875 -19.03125 8.265625 -14.65625 C 8.222656 -10.28125 8.164062 -7.019531 8.09375 -4.875 C 7.695312 -4.832031 7.078125 -4.796875 6.234375 -4.765625 C 5.398438 -4.722656 4.765625 -4.6875 4.328125 -4.65625 C 4.359375 -6.84375 4.429688 -10.160156 4.546875 -14.609375 C 4.691406 -19.015625 4.800781 -22.332031 4.875 -24.5625 L 3.671875 -24.5625 C 2.609375 -24.5625 1.929688 -24.6875 1.640625 -24.9375 C 1.347656 -25.226562 1.203125 -25.882812 1.203125 -26.90625 Z M 4.375 -40.796875 C 5.03125 -41.421875 5.796875 -41.734375 6.671875 -41.734375 C 7.804688 -41.734375 8.773438 -41.3125 9.578125 -40.46875 C 10.378906 -39.707031 10.78125 -38.796875 10.78125 -37.734375 C 10.78125 -36.640625 10.378906 -35.691406 9.578125 -34.890625 C 8.804688 -34.085938 7.894531 -33.6875 6.84375 -33.6875 C 5.96875 -33.6875 5.164062 -34.015625 4.4375 -34.671875 C 3.414062 -35.546875 2.90625 -36.566406 2.90625 -37.734375 C 2.90625 -38.898438 3.394531 -39.921875 4.375 -40.796875 Z M 4.375 -40.796875 "/></g></g><g style="fill:#ffffff;fill-opacity:1;"><g transform="translate(286.679337, 87.475002)"><path style="stroke:none" d="M 23.25 -35.875 C 23.25 -35.84375 21.988281 -33.53125 19.46875 -28.9375 C 16.957031 -24.34375 15.703125 -21.9375 15.703125 -21.71875 C 15.703125 -21.5 16.15625 -21.390625 17.0625 -21.390625 C 17.789062 -21.390625 18.210938 -21.316406 18.328125 -21.171875 C 18.429688 -21.023438 18.484375 -20.492188 18.484375 -19.578125 L 18.484375 -17.828125 L 13.40625 -17.828125 C 12.96875 -17.023438 12.09375 -15.441406 10.78125 -13.078125 C 8.988281 -9.972656 8.09375 -8.296875 8.09375 -8.046875 C 8.09375 -7.929688 9.332031 -7.875 11.8125 -7.875 C 14.1875 -7.875 16.066406 -7.894531 17.453125 -7.9375 L 26.796875 -8.265625 L 26.796875 -4.765625 C 26.546875 -4.722656 26 -4.648438 25.15625 -4.546875 C 22.644531 -4.179688 16.410156 -4 6.453125 -4 C 3.359375 -4 1.8125 -4.050781 1.8125 -4.15625 C 1.8125 -4.488281 3.03125 -6.859375 5.46875 -11.265625 L 9.25 -18 C 8.914062 -18 8.257812 -18.035156 7.28125 -18.109375 C 6.945312 -18.140625 6.289062 -18.191406 5.3125 -18.265625 C 5.3125 -18.671875 5.347656 -19.273438 5.421875 -20.078125 C 5.453125 -20.878906 5.488281 -21.476562 5.53125 -21.875 C 6.1875 -21.914062 7.171875 -21.9375 8.484375 -21.9375 L 11.375 -21.9375 C 11.8125 -22.695312 12.671875 -24.226562 13.953125 -26.53125 C 15.515625 -29.40625 16.296875 -30.953125 16.296875 -31.171875 L 16.1875 -31.171875 C 15.71875 -31.171875 13.238281 -30.878906 8.75 -30.296875 C 4.300781 -29.753906 1.914062 -29.484375 1.59375 -29.484375 L 1.53125 -29.484375 C 1.457031 -29.554688 1.382812 -30.15625 1.3125 -31.28125 C 1.28125 -31.6875 1.242188 -32.289062 1.203125 -33.09375 C 2.992188 -33.34375 6.566406 -33.832031 11.921875 -34.5625 C 13.421875 -34.75 15.171875 -34.96875 17.171875 -35.21875 C 19.179688 -35.476562 20.625 -35.660156 21.5 -35.765625 C 22.40625 -35.910156 22.894531 -35.984375 22.96875 -35.984375 C 23.15625 -35.984375 23.25 -35.945312 23.25 -35.875 Z M 23.25 -35.875 "/></g></g><g style="fill:#ffffff;fill-opacity:1;"><g transform="translate(317.530089, 87.475002)"><path style="stroke:none" d="M 16.625 -32.15625 C 15.601562 -32.632812 14.53125 -32.875 13.40625 -32.875 C 11.320312 -32.875 9.425781 -32.050781 7.71875 -30.40625 C 6.988281 -29.675781 6.332031 -28.582031 5.75 -27.125 C 5.164062 -25.707031 4.875 -24.488281 4.875 -23.46875 C 4.875 -22.625 5.109375 -22.203125 5.578125 -22.203125 C 6.203125 -22.203125 7.625 -22.675781 9.84375 -23.625 C 12.070312 -24.613281 13.75 -25.488281 14.875 -26.25 C 15.9375 -26.976562 16.832031 -27.765625 17.5625 -28.609375 C 18.289062 -29.441406 18.65625 -30.113281 18.65625 -30.625 C 18.65625 -30.695312 18.617188 -30.804688 18.546875 -30.953125 C 18.398438 -31.242188 17.757812 -31.644531 16.625 -32.15625 Z M 9.25 -35.765625 C 10.5625 -36.242188 11.945312 -36.484375 13.40625 -36.484375 C 15.039062 -36.484375 16.570312 -36.191406 18 -35.609375 C 19.457031 -35.023438 20.566406 -34.222656 21.328125 -33.203125 C 22.023438 -32.328125 22.375 -31.414062 22.375 -30.46875 C 22.375 -29.550781 22.023438 -28.546875 21.328125 -27.453125 C 20.453125 -25.921875 18.773438 -24.375 16.296875 -22.8125 C 13.859375 -21.238281 11.015625 -19.90625 7.765625 -18.8125 C 6.597656 -18.414062 5.867188 -18.125 5.578125 -17.9375 C 5.285156 -17.789062 5.140625 -17.535156 5.140625 -17.171875 L 5.140625 -16.734375 C 5.210938 -16.078125 5.6875 -14.875 6.5625 -13.125 C 7.40625 -11.300781 8.410156 -10.023438 9.578125 -9.296875 C 10.742188 -8.609375 12.289062 -8.265625 14.21875 -8.265625 C 15.425781 -8.265625 16.359375 -8.335938 17.015625 -8.484375 C 17.671875 -8.660156 18.582031 -9.039062 19.75 -9.625 C 21.675781 -10.539062 23.242188 -11.523438 24.453125 -12.578125 C 24.890625 -12.984375 25.523438 -13.566406 26.359375 -14.328125 C 26.941406 -13.742188 27.78125 -12.890625 28.875 -11.765625 C 28.40625 -11.328125 27.695312 -10.6875 26.75 -9.84375 C 25.4375 -8.644531 23.847656 -7.570312 21.984375 -6.625 C 20.160156 -5.632812 18.484375 -4.992188 16.953125 -4.703125 C 15.972656 -4.484375 14.988281 -4.375 14 -4.375 C 11.632812 -4.375 9.519531 -4.976562 7.65625 -6.1875 C 5.757812 -7.382812 4.25 -9.113281 3.125 -11.375 C 1.769531 -14.070312 1.09375 -17.242188 1.09375 -20.890625 L 1.09375 -21.546875 C 1.09375 -24.503906 1.421875 -26.765625 2.078125 -28.328125 C 2.660156 -29.828125 3.664062 -31.320312 5.09375 -32.8125 C 6.550781 -34.34375 7.9375 -35.328125 9.25 -35.765625 Z M 9.25 -35.765625 "/></g></g><g style="fill:#ffffff;fill-opacity:1;"><g transform="translate(350.458676, 87.475002)"><path style="stroke:none" d="M 1.203125 -26.90625 L 1.203125 -28.609375 C 1.898438 -28.566406 3.304688 -28.492188 5.421875 -28.390625 C 7.972656 -28.203125 9.90625 -28.109375 11.21875 -28.109375 L 12.6875 -28.109375 L 12.6875 -24.5625 L 8.375 -24.5625 C 8.332031 -22.332031 8.296875 -19.03125 8.265625 -14.65625 C 8.222656 -10.28125 8.164062 -7.019531 8.09375 -4.875 C 7.695312 -4.832031 7.078125 -4.796875 6.234375 -4.765625 C 5.398438 -4.722656 4.765625 -4.6875 4.328125 -4.65625 C 4.359375 -6.84375 4.429688 -10.160156 4.546875 -14.609375 C 4.691406 -19.015625 4.800781 -22.332031 4.875 -24.5625 L 3.671875 -24.5625 C 2.609375 -24.5625 1.929688 -24.6875 1.640625 -24.9375 C 1.347656 -25.226562 1.203125 -25.882812 1.203125 -26.90625 Z M 4.375 -40.796875 C 5.03125 -41.421875 5.796875 -41.734375 6.671875 -41.734375 C 7.804688 -41.734375 8.773438 -41.3125 9.578125 -40.46875 C 10.378906 -39.707031 10.78125 -38.796875 10.78125 -37.734375 C 10.78125 -36.640625 10.378906 -35.691406 9.578125 -34.890625 C 8.804688 -34.085938 7.894531 -33.6875 6.84375 -33.6875 C 5.96875 -33.6875 5.164062 -34.015625 4.4375 -34.671875 C 3.414062 -35.546875 2.90625 -36.566406 2.90625 -37.734375 C 2.90625 -38.898438 3.394531 -39.921875 4.375 -40.796875 Z M 4.375 -40.796875 "/></g></g><path style=" stroke:none;fill-rule:nonzero;fill:#357eff;fill-opacity:1;" d="M 231.941406 59.839844 C 231.304688 58.980469 230.519531 58.246094 229.664062 57.582031 C 227.917969 54.773438 225.074219 52.878906 221.441406 52.972656 C 221.128906 52.984375 220.839844 53.097656 220.566406 53.257812 C 219.132812 52.28125 217.601562 51.898438 216.078125 51.980469 C 213.242188 51.660156 210.328125 52.621094 208.382812 54.953125 C 206.949219 56.667969 206.195312 58.773438 205.910156 60.957031 C 205.554688 62.226562 205.421875 63.554688 205.621094 64.851562 C 205.679688 65.261719 205.785156 65.65625 205.914062 66.042969 C 206.183594 68.554688 206.867188 71.074219 208.378906 72.996094 C 208.757812 73.476562 209.167969 73.851562 209.59375 74.183594 C 210.40625 75.09375 211.421875 75.863281 212.675781 76.414062 C 214.121094 77.050781 215.675781 77.222656 217.167969 76.976562 C 217.347656 77.648438 217.574219 78.304688 217.898438 78.929688 C 218.285156 79.667969 219.125 79.777344 219.84375 79.519531 C 223.023438 78.390625 225.804688 75.945312 227.570312 72.949219 C 228.320312 73.148438 229.070312 72.546875 229.503906 72.007812 C 232.230469 68.597656 234.953125 63.914062 231.941406 59.847656 Z M 213.0625 67.339844 C 212.996094 66.972656 212.960938 66.601562 212.9375 66.226562 C 212.929688 66.03125 212.917969 65.835938 212.917969 65.640625 C 212.917969 65.746094 212.917969 65.492188 212.9375 65.238281 C 212.984375 64.359375 213.109375 63.488281 213.289062 62.628906 C 213.445312 61.871094 213.59375 61.308594 213.949219 60.347656 C 214.09375 59.957031 214.25 59.570312 214.421875 59.1875 C 214.488281 59.042969 214.554688 58.90625 214.621094 58.769531 C 214.644531 58.726562 214.796875 58.445312 214.839844 58.375 C 215.027344 58.054688 215.242188 57.761719 215.445312 57.453125 C 215.460938 57.425781 215.46875 57.410156 215.480469 57.394531 C 215.496094 57.378906 215.5 57.375 215.519531 57.355469 C 215.640625 57.226562 215.769531 57.097656 215.890625 56.964844 C 215.914062 56.9375 215.902344 56.941406 215.921875 56.925781 C 216.039062 56.855469 216.15625 56.773438 216.265625 56.695312 C 216.292969 56.675781 216.308594 56.664062 216.316406 56.65625 C 216.328125 56.664062 216.316406 56.671875 216.34375 56.675781 C 216.691406 56.742188 216.421875 56.667969 216.386719 56.664062 C 216.535156 56.683594 216.671875 56.699219 216.820312 56.734375 C 216.875 56.75 216.9375 56.773438 217.003906 56.796875 C 215.1875 58.402344 214.164062 60.714844 213.671875 63.074219 C 213.355469 64.601562 213.28125 66.207031 213.347656 67.773438 C 213.277344 67.765625 213.214844 67.753906 213.144531 67.742188 C 213.113281 67.601562 213.085938 67.46875 213.058594 67.332031 Z M 217.386719 62.140625 C 217.609375 61.203125 217.964844 60.46875 218.410156 59.777344 C 218.460938 59.699219 218.515625 59.628906 218.570312 59.554688 C 218.710938 59.414062 218.855469 59.269531 218.996094 59.128906 C 219.027344 59.09375 219.039062 59.078125 219.054688 59.058594 C 219.078125 59.050781 219.101562 59.035156 219.136719 59.011719 C 219.144531 59.007812 219.160156 59 219.167969 58.992188 C 219.445312 59.882812 219.421875 60.890625 219.242188 61.863281 C 218.933594 63.542969 218.101562 65.074219 216.957031 66.277344 C 216.914062 64.851562 217.085938 63.382812 217.386719 62.144531 Z M 225.714844 65.574219 C 225.804688 65.34375 225.894531 65.105469 225.976562 64.867188 C 226.582031 63.824219 227.046875 62.675781 227.214844 61.5 C 227.339844 61.828125 227.460938 62.15625 227.546875 62.488281 C 227.640625 62.820312 227.710938 63.175781 227.765625 63.53125 C 227.222656 63.703125 226.6875 64.0625 226.414062 64.457031 C 226.128906 64.871094 225.878906 65.308594 225.628906 65.746094 C 225.652344 65.691406 225.6875 65.636719 225.710938 65.578125 Z M 220.855469 75.425781 C 220.847656 75.402344 220.84375 75.375 220.835938 75.347656 C 222.054688 74.410156 222.988281 73.183594 223.691406 71.816406 C 223.671875 72.003906 223.628906 72.183594 223.621094 72.371094 C 223.613281 72.605469 223.652344 72.828125 223.71875 73.03125 C 222.894531 73.996094 221.914062 74.828125 220.851562 75.425781 Z M 220.855469 75.425781 "/><path style=" stroke:none;fill-rule:nonzero;fill:#357eff;fill-opacity:1;" d="M 216.277344 56.707031 C 216.277344 56.707031 216.285156 56.695312 216.300781 56.683594 C 216.230469 56.746094 216.027344 56.90625 216.277344 56.707031 Z M 216.277344 56.707031 "/><path style=" stroke:none;fill-rule:nonzero;fill:#357eff;fill-opacity:1;" d="M 216.316406 56.671875 C 216.3125 56.675781 216.308594 56.679688 216.300781 56.691406 C 216.304688 56.683594 216.3125 56.675781 216.316406 56.675781 Z M 216.316406 56.671875 "/><path style=" stroke:none;fill-rule:nonzero;fill:#ffffff;fill-opacity:1;" d="M 218.289062 52.351562 C 223.398438 52.851562 227.792969 56.746094 229.320312 61.585938 C 230.902344 66.601562 228.675781 71.785156 224.472656 74.75 C 220.214844 77.757812 214.710938 77.679688 210.523438 74.59375 C 206.453125 71.601562 204.03125 66.332031 205.460938 61.335938 C 207.050781 55.777344 212.566406 51.976562 218.285156 52.351562 C 219.945312 52.464844 220.710938 49.550781 218.832031 49.429688 C 212.441406 49.015625 206.4375 52.871094 203.6875 58.585938 C 200.894531 64.382812 202.4375 71.09375 206.929688 75.558594 C 211.402344 80.003906 218.054688 81.171875 223.714844 78.328125 C 229.285156 75.527344 233.320312 69.378906 232.570312 63.023438 C 231.742188 56.003906 225.886719 50.117188 218.839844 49.433594 C 217.183594 49.273438 216.417969 52.171875 218.289062 52.359375 Z M 218.289062 52.351562 "/><g clip-rule="nonzero" clip-path="url(#8614e93220)"><path style=" stroke:none;fill-rule:nonzero;fill:#000000;fill-opacity:1;" d="M 271.296875 43.28125 L 282.917969 43.28125 L 282.917969 54.855469 L 271.296875 54.855469 Z M 271.296875 43.28125 "/></g><g clip-rule="nonzero" clip-path="url(#9ad3f6a21b)"><g clip-rule="nonzero" clip-path="url(#3404a3af17)"><g clip-rule="nonzero" clip-path="url(#fcfa6c4c8e)"><path style=" stroke:none;fill-rule:nonzero;fill:#f5349b;fill-opacity:1;" d="M 275.605469 45.347656 C 273.816406 43.125 272.769531 47.019531 272.761719 48.273438 C 272.730469 51.710938 273.886719 54.921875 275.847656 57.707031 C 276.074219 58.023438 276.621094 58.039062 276.890625 57.785156 C 279.089844 55.699219 281.101562 53.441406 282.921875 51.015625 C 283.792969 49.851562 285.589844 48.0625 284.6875 46.457031 C 282.421875 42.421875 277.589844 48.488281 277.050781 50.738281 C 276.980469 51.023438 277.328125 51.339844 277.578125 51.089844 C 278.40625 50.265625 279.027344 49.304688 279.78125 48.421875 C 280.703125 47.34375 280.523438 47.195312 281.996094 47.851562 C 283.652344 48.582031 283.011719 48.667969 282.085938 49.894531 C 280.25 52.335938 278.148438 54.566406 275.925781 56.664062 L 276.96875 56.742188 C 275.84375 55.167969 275.035156 53.445312 274.53125 51.582031 C 274.335938 50.839844 273.234375 45.277344 275.332031 45.753906 C 275.453125 45.789062 275.546875 45.753906 275.617188 45.648438 C 275.6875 45.542969 275.683594 45.441406 275.605469 45.34375 Z M 275.605469 45.347656 "/></g></g></g><g clip-rule="nonzero" clip-path="url(#b78bbd35f1)"><g clip-rule="nonzero" clip-path="url(#a7c8d3d31d)"><g clip-rule="nonzero" clip-path="url(#91ffca2572)"><path style=" stroke:none;fill-rule:nonzero;fill:#f5349b;fill-opacity:1;" d="M 274.351562 45.621094 C 276.453125 46.324219 275.699219 49.007812 276.40625 50.597656 C 276.445312 50.679688 276.507812 50.71875 276.597656 50.710938 C 276.6875 50.707031 276.746094 50.660156 276.773438 50.578125 C 277.113281 49.5 276.769531 47.929688 276.386719 46.890625 C 276.0625 46.007812 275.378906 45.238281 274.367188 45.398438 C 274.3125 45.410156 274.28125 45.445312 274.277344 45.503906 C 274.273438 45.566406 274.300781 45.605469 274.355469 45.625 Z M 274.351562 45.621094 "/></g></g></g><g clip-rule="nonzero" clip-path="url(#d3c90e4476)"><g clip-rule="nonzero" clip-path="url(#a208e357f9)"><g clip-rule="nonzero" clip-path="url(#9cd141ba8c)"><path style=" stroke:none;fill-rule:nonzero;fill:#f5349b;fill-opacity:1;" d="M 274.546875 45.277344 C 274.519531 46.8125 274.863281 48.371094 275.113281 49.878906 C 275.335938 51.207031 275.378906 52.828125 276.132812 53.96875 C 276.183594 54.027344 276.25 54.046875 276.324219 54.03125 C 276.398438 54.015625 276.449219 53.972656 276.476562 53.898438 C 276.769531 52.5625 276.214844 51.03125 275.9375 49.71875 C 275.625 48.21875 275.378906 46.648438 274.792969 45.230469 C 274.765625 45.171875 274.71875 45.148438 274.652344 45.160156 C 274.589844 45.175781 274.554688 45.214844 274.546875 45.277344 Z M 274.546875 45.277344 "/></g></g></g><g clip-rule="nonzero" clip-path="url(#da0bd3fe82)"><g clip-rule="nonzero" clip-path="url(#d381321e8a)"><g clip-rule="nonzero" clip-path="url(#611a0a1096)"><path style=" stroke:none;fill-rule:nonzero;fill:#f5349b;fill-opacity:1;" d="M 273.746094 45.804688 C 273.5 47.464844 274 49.355469 274.390625 50.960938 C 274.726562 52.339844 275.058594 54.457031 276.105469 55.460938 C 276.183594 55.542969 276.277344 55.5625 276.386719 55.523438 C 276.492188 55.488281 276.554688 55.410156 276.566406 55.296875 C 276.652344 53.75 275.605469 52.015625 275.179688 50.542969 C 274.726562 48.988281 274.539062 47.253906 273.890625 45.777344 C 273.859375 45.707031 273.761719 45.738281 273.75 45.808594 Z M 273.746094 45.804688 "/></g></g></g><g clip-rule="nonzero" clip-path="url(#07dc672f69)"><g clip-rule="nonzero" clip-path="url(#a5969ef339)"><g clip-rule="nonzero" clip-path="url(#c6b06635b0)"><path style=" stroke:none;fill-rule:nonzero;fill:#f5349b;fill-opacity:1;" d="M 275.910156 46.671875 C 276.089844 48.039062 276.257812 49.410156 276.425781 50.78125 C 276.59375 52.152344 276.5625 53.554688 276.847656 54.890625 C 276.878906 55.050781 276.976562 55.125 277.140625 55.113281 C 277.304688 55.101562 277.390625 55.015625 277.402344 54.851562 C 277.652344 52.199219 276.929688 49.152344 276.226562 46.609375 C 276.203125 46.507812 276.140625 46.464844 276.039062 46.488281 C 275.9375 46.507812 275.894531 46.566406 275.910156 46.671875 Z M 275.910156 46.671875 "/></g></g></g><g clip-rule="nonzero" clip-path="url(#5ba42de806)"><g clip-rule="nonzero" clip-path="url(#6a661150cc)"><g clip-rule="nonzero" clip-path="url(#4806ca2f74)"><path style=" stroke:none;fill-rule:nonzero;fill:#f5349b;fill-opacity:1;" d="M 281.539062 46.6875 C 280.191406 48.253906 279.011719 49.964844 277.648438 51.519531 C 276.492188 52.84375 275.152344 53.972656 274.367188 55.5625 C 274.222656 55.851562 274.402344 56.230469 274.765625 56.164062 C 275.238281 56.074219 275.253906 56.058594 275.546875 55.675781 C 275.6875 55.492188 275.457031 55.261719 275.261719 55.347656 L 274.816406 55.402344 L 275.015625 55.992188 C 276.929688 52.738281 280.027344 50.28125 281.960938 46.972656 C 282.035156 46.835938 282.007812 46.722656 281.878906 46.636719 C 281.75 46.550781 281.636719 46.570312 281.542969 46.691406 Z M 281.539062 46.6875 "/></g></g></g><g clip-rule="nonzero" clip-path="url(#44626f172a)"><g clip-rule="nonzero" clip-path="url(#3d8abdc456)"><g clip-rule="nonzero" clip-path="url(#376ae719bb)"><path style=" stroke:none;fill-rule:nonzero;fill:#f5349b;fill-opacity:1;" d="M 282.484375 46.652344 C 281.035156 48.152344 279.796875 49.875 278.535156 51.535156 C 277.621094 52.738281 276.105469 54.109375 275.898438 55.65625 C 275.863281 55.972656 276.320312 56.226562 276.546875 55.976562 C 276.84375 55.648438 276.988281 55.484375 277.261719 55.136719 C 277.351562 55.023438 277.203125 54.902344 277.09375 54.945312 C 276.761719 55.054688 276.4375 55.179688 276.121094 55.328125 L 276.664062 55.804688 C 277.242188 54.210938 278.714844 52.675781 279.695312 51.3125 C 280.738281 49.863281 281.859375 48.445312 282.78125 46.914062 C 282.890625 46.730469 282.652344 46.476562 282.484375 46.652344 Z M 282.484375 46.652344 "/></g></g></g><g clip-rule="nonzero" clip-path="url(#701aa12c99)"><g clip-rule="nonzero" clip-path="url(#d467326c9c)"><g clip-rule="nonzero" clip-path="url(#a95edb6336)"><path style=" stroke:none;fill-rule:nonzero;fill:#f5349b;fill-opacity:1;" d="M 283.722656 47.527344 C 281.082031 49.726562 278.808594 52.828125 276.660156 55.492188 C 276.621094 55.550781 276.601562 55.613281 276.597656 55.683594 C 276.59375 55.753906 276.605469 55.820312 276.636719 55.882812 C 276.667969 55.941406 276.710938 55.992188 276.769531 56.03125 C 276.828125 56.070312 276.890625 56.09375 276.960938 56.097656 L 277.152344 56.09375 C 277.265625 56.097656 277.355469 56.054688 277.417969 55.957031 L 277.503906 55.808594 C 277.5625 55.71875 277.535156 55.5625 277.410156 55.53125 C 278.03125 55.671875 280.324219 52.230469 280.648438 51.824219 C 281.746094 50.476562 282.972656 49.148438 283.871094 47.65625 C 283.902344 47.605469 283.894531 47.5625 283.851562 47.523438 C 283.808594 47.484375 283.765625 47.484375 283.71875 47.519531 Z M 283.722656 47.527344 "/></g></g></g><g clip-rule="nonzero" clip-path="url(#d027b1457d)"><g clip-rule="nonzero" clip-path="url(#e71eab60d2)"><g clip-rule="nonzero" clip-path="url(#577e59bd50)"><path style=" stroke:none;fill-rule:nonzero;fill:#f5349b;fill-opacity:1;" d="M 283.667969 47.964844 C 281.640625 50.324219 279.300781 52.378906 277.238281 54.695312 C 276.972656 54.996094 277.429688 55.371094 277.636719 55.050781 C 277.71875 54.925781 277.808594 54.796875 277.886719 54.664062 C 277.914062 54.617188 277.910156 54.570312 277.875 54.53125 C 277.839844 54.488281 277.796875 54.480469 277.746094 54.503906 L 277.289062 54.652344 L 277.585938 55.101562 C 280.054688 53.277344 282.125 50.609375 283.945312 48.148438 C 284.074219 47.976562 283.804688 47.808594 283.667969 47.964844 Z M 283.667969 47.964844 "/></g></g></g><g clip-rule="nonzero" clip-path="url(#8d39eb962c)"><g clip-rule="nonzero" clip-path="url(#1ea09d1ffe)"><g clip-rule="nonzero" clip-path="url(#648cc091a6)"><path style=" stroke:none;fill-rule:nonzero;fill:#f5349b;fill-opacity:1;" d="M 282.496094 48.195312 C 282.582031 48.003906 282.570312 48 282.488281 47.800781 C 282.453125 47.726562 282.394531 47.683594 282.308594 47.679688 C 281.328125 47.632812 280.203125 49.011719 279.507812 49.574219 C 278.886719 50.066406 277.386719 50.785156 277.703125 51.765625 C 277.714844 51.828125 277.746094 51.886719 277.789062 51.933594 C 277.832031 51.980469 277.882812 52.015625 277.945312 52.039062 C 278.003906 52.058594 278.066406 52.0625 278.132812 52.050781 C 278.195312 52.042969 278.25 52.015625 278.300781 51.972656 C 279.742188 50.863281 280.914062 49.523438 281.816406 47.949219 C 281.898438 47.808594 281.863281 47.578125 281.675781 47.535156 C 280.429688 47.253906 279.375 48.324219 278.472656 49.054688 C 277.464844 49.871094 276.09375 50.839844 276.117188 52.269531 C 276.117188 52.4375 276.363281 52.566406 276.460938 52.386719 C 276.941406 51.5 277.566406 50.730469 278.332031 50.074219 C 279.152344 49.359375 280.4375 48.054688 281.578125 48.070312 L 281.335938 47.710938 C 280.59375 49.308594 279.453125 50.527344 277.90625 51.367188 L 278.425781 51.628906 C 278.34375 51.140625 280.054688 50.070312 280.386719 49.796875 C 280.742188 49.503906 282.226562 48.597656 282.277344 48.15625 C 282.261719 48.292969 282.453125 48.3125 282.5 48.199219 Z M 282.496094 48.195312 "/></g></g></g><g clip-rule="nonzero" clip-path="url(#09edecc84a)"><g clip-rule="nonzero" clip-path="url(#9248c3a236)"><g clip-rule="nonzero" clip-path="url(#5c9759f758)"><path style=" stroke:none;fill-rule:nonzero;fill:#f5349b;fill-opacity:1;" d="M 282.304688 47.589844 C 281.402344 48.503906 280.636719 49.550781 279.824219 50.539062 C 278.890625 51.671875 277.84375 52.738281 277.121094 54.011719 C 277.066406 54.097656 277.078125 54.175781 277.15625 54.242188 C 277.230469 54.308594 277.308594 54.3125 277.386719 54.25 C 279.410156 52.6875 281.355469 50.070312 282.632812 47.886719 C 282.753906 47.679688 282.488281 47.402344 282.300781 47.589844 Z M 282.304688 47.589844 "/></g></g></g><g clip-rule="nonzero" clip-path="url(#3409a0a0fa)"><g clip-rule="nonzero" clip-path="url(#bfbb691a8b)"><g clip-rule="nonzero" clip-path="url(#f43e236718)"><path style=" stroke:none;fill-rule:nonzero;fill:#f5349b;fill-opacity:1;" d="M 283.226562 47.820312 C 281.4375 49.941406 279.347656 51.867188 277.679688 54.082031 C 277.542969 54.261719 277.800781 54.464844 277.964844 54.335938 C 280.144531 52.644531 281.894531 50.226562 283.542969 48.03125 C 283.6875 47.835938 283.382812 47.640625 283.230469 47.820312 Z M 283.226562 47.820312 "/></g></g></g><g clip-rule="nonzero" clip-path="url(#471fd6ee7d)"><g clip-rule="nonzero" clip-path="url(#4eb06257ac)"><g clip-rule="nonzero" clip-path="url(#aa70f8c3eb)"><path style=" stroke:none;fill-rule:nonzero;fill:#ffffff;fill-opacity:1;" d="M 275.554688 57.921875 C 275.625 58.246094 276.078125 58.597656 276.410156 58.464844 C 278.839844 57.46875 280.828125 55.550781 282.53125 53.601562 C 283.886719 52.046875 285.949219 49.679688 285.953125 47.457031 C 285.960938 45.773438 284.425781 44.769531 282.851562 44.804688 C 280.484375 44.851562 278.980469 46.339844 277.878906 48.152344 C 277.691406 46.835938 277.171875 45.667969 276.320312 44.644531 C 275.28125 43.421875 273.753906 43.042969 272.46875 44.230469 C 268.800781 47.625 273.542969 54.761719 275.554688 57.921875 Z M 275.820312 45.328125 C 276.976562 46.277344 277.023438 48.660156 276.824219 50.195312 C 276.792969 50.265625 276.761719 50.332031 276.726562 50.40625 C 276.679688 50.519531 276.679688 50.636719 276.734375 50.75 C 276.730469 50.769531 276.726562 50.792969 276.722656 50.8125 C 276.625 51.277344 277.683594 51.835938 277.796875 51.292969 C 277.835938 51.097656 277.871094 50.902344 277.898438 50.703125 C 278.761719 48.769531 279.9375 46.320312 282.257812 45.949219 C 285.773438 45.390625 284.726562 48.371094 283.621094 50.144531 C 281.882812 52.941406 279.25 55.933594 276.179688 57.351562 C 274.53125 54.742188 272.824219 51.9375 272.460938 48.832031 C 272.371094 48.058594 272.359375 47.199219 272.574219 46.441406 C 273.042969 44.816406 274.398438 44.15625 275.820312 45.328125 Z M 275.820312 45.328125 "/></g></g></g><g clip-rule="nonzero" clip-path="url(#5c8c10d8c3)"><path style=" stroke:none;fill-rule:nonzero;fill:#000000;fill-opacity:1;" d="M 352.253906 43.28125 L 363.871094 43.28125 L 363.871094 54.855469 L 352.253906 54.855469 Z M 352.253906 43.28125 "/></g><g clip-rule="nonzero" clip-path="url(#14c3f158d0)"><g clip-rule="nonzero" clip-path="url(#d9adb7a923)"><g clip-rule="nonzero" clip-path="url(#69f8c3e81e)"><path style=" stroke:none;fill-rule:nonzero;fill:#357eff;fill-opacity:1;" d="M 363.855469 45.164062 C 363.710938 45.269531 363.558594 45.363281 363.410156 45.457031 C 363.324219 45.371094 363.222656 45.308594 363.089844 45.324219 C 362.554688 45.390625 362.039062 45.546875 361.554688 45.777344 C 361.503906 45.546875 361.3125 45.355469 361.066406 45.414062 C 360.789062 45.480469 360.65625 45.753906 360.621094 46.015625 C 360.542969 45.75 360.332031 45.53125 360.03125 45.644531 C 359.925781 45.6875 359.84375 45.773438 359.773438 45.871094 C 359.539062 45.597656 359.011719 45.773438 358.9375 46.195312 C 358.90625 46.382812 358.867188 46.570312 358.835938 46.757812 C 358.78125 45.773438 358.722656 44.789062 358.617188 43.808594 C 358.558594 43.296875 358.035156 43.386719 357.820312 43.707031 C 357.785156 43.230469 357.75 42.75 357.710938 42.269531 C 357.65625 41.671875 356.964844 41.898438 356.84375 42.332031 C 356.816406 42.4375 356.78125 42.542969 356.753906 42.644531 C 356.492188 42.503906 356.125 42.597656 356.007812 43.054688 C 355.742188 44.058594 355.585938 45.085938 355.523438 46.121094 C 355.308594 46.371094 355.128906 46.664062 354.933594 46.914062 C 354.785156 47.113281 354.632812 47.3125 354.480469 47.507812 C 353.429688 47.664062 352.375 47.8125 351.339844 48.03125 C 351.035156 48.097656 350.835938 48.371094 350.765625 48.660156 C 350.59375 49.050781 350.640625 49.5625 351.070312 49.667969 C 352.179688 49.933594 353.308594 49.917969 354.398438 49.570312 C 354.636719 49.492188 354.78125 49.21875 354.816406 48.933594 C 354.820312 48.933594 354.820312 48.933594 354.828125 48.933594 C 354.90625 48.917969 354.972656 48.890625 355.027344 48.859375 C 354.949219 49.0625 354.875 49.269531 354.792969 49.472656 C 354.644531 49.863281 354.488281 50.253906 354.335938 50.644531 C 353.726562 51.726562 353.140625 52.902344 352.859375 54.113281 C 352.777344 54.46875 352.835938 54.945312 353.214844 55.109375 C 353.554688 55.257812 353.976562 55.039062 354.109375 54.695312 C 354.246094 54.34375 354.378906 53.996094 354.519531 53.644531 C 354.761719 53.871094 355.171875 53.835938 355.386719 53.535156 C 355.679688 53.121094 355.921875 52.691406 356.125 52.25 C 356.171875 52.261719 356.214844 52.273438 356.265625 52.269531 C 356.601562 52.25 356.824219 51.929688 356.917969 51.636719 C 357.074219 51.152344 357.171875 50.644531 357.25 50.128906 C 357.261719 50.152344 357.265625 50.183594 357.285156 50.203125 C 357.410156 50.339844 357.53125 50.480469 357.652344 50.617188 C 357.550781 50.882812 357.570312 51.191406 357.800781 51.378906 C 358.246094 51.738281 358.664062 52.109375 359.0625 52.507812 C 359.265625 52.710938 359.464844 52.921875 359.652344 53.132812 C 359.867188 53.371094 360.058594 53.636719 360.300781 53.847656 C 360.480469 54.003906 360.777344 53.875 360.902344 53.714844 C 361.070312 53.5 361.117188 53.21875 361.027344 52.964844 C 361.003906 52.902344 360.96875 52.707031 360.941406 52.589844 C 360.90625 52.425781 360.871094 52.265625 360.828125 52.101562 C 360.742188 51.773438 360.660156 51.4375 360.542969 51.117188 C 360.5 51.003906 360.417969 50.929688 360.320312 50.894531 C 360.277344 50.109375 360.214844 49.320312 360.144531 48.53125 C 360.152344 48.570312 360.160156 48.609375 360.171875 48.648438 C 360.246094 48.890625 360.539062 49 360.757812 48.914062 C 361.039062 48.804688 361.148438 48.515625 361.191406 48.246094 C 361.234375 47.96875 361.269531 47.6875 361.308594 47.410156 C 361.328125 47.410156 361.351562 47.410156 361.371094 47.414062 C 361.570312 47.53125 361.792969 47.605469 362.046875 47.605469 C 362.496094 47.601562 362.867188 47.371094 363.136719 47.042969 C 363.625 46.808594 364.058594 46.476562 364.375 46.042969 C 364.535156 45.824219 364.613281 45.511719 364.460938 45.269531 C 364.324219 45.050781 364.070312 45 363.859375 45.15625 Z M 363.855469 45.164062 "/></g></g></g><g clip-rule="nonzero" clip-path="url(#98d398369f)"><g clip-rule="nonzero" clip-path="url(#f49205a9bd)"><g clip-rule="nonzero" clip-path="url(#469ada7f57)"><path style=" stroke:none;fill-rule:nonzero;fill:#ffffff;fill-opacity:1;" d="M 359.84375 49.683594 C 360.472656 51.425781 361.140625 53.253906 361.378906 55.097656 C 361.730469 54.851562 362.082031 54.601562 362.429688 54.359375 C 360.820312 53.15625 359.296875 51.847656 357.863281 50.4375 C 357.644531 50.222656 357.28125 50.265625 357.070312 50.460938 C 355.417969 51.960938 353.90625 53.597656 352.394531 55.234375 C 352.742188 55.390625 353.085938 55.546875 353.429688 55.703125 C 353.4375 53.828125 354.1875 51.847656 354.847656 50.113281 C 354.996094 49.726562 354.824219 49.132812 354.347656 49.082031 C 352.691406 48.902344 350.894531 48.683594 349.367188 47.996094 L 349.183594 49.453125 C 350.15625 49.132812 351.128906 48.8125 352.101562 48.476562 C 352.535156 48.328125 352.964844 48.175781 353.398438 48.019531 C 353.890625 47.839844 354.554688 47.703125 354.992188 47.417969 C 355.34375 47.191406 355.429688 46.78125 355.574219 46.410156 C 355.765625 45.914062 355.957031 45.421875 356.148438 44.925781 C 356.566406 43.835938 356.988281 42.746094 357.40625 41.660156 C 357.035156 41.726562 356.664062 41.792969 356.289062 41.859375 C 357.183594 43.121094 357.9375 44.464844 358.632812 45.84375 C 358.75 46.074219 359.007812 46.128906 359.238281 46.117188 C 361.175781 46.015625 363.109375 45.914062 365.046875 45.816406 C 364.890625 45.367188 364.734375 44.917969 364.578125 44.472656 C 363.070312 45.90625 361.566406 47.347656 360.0625 48.785156 C 359.457031 49.363281 360.140625 50.640625 360.839844 49.96875 C 362.34375 48.53125 363.847656 47.089844 365.359375 45.65625 C 365.84375 45.195312 365.613281 44.273438 364.890625 44.3125 C 362.953125 44.414062 361.015625 44.515625 359.078125 44.613281 C 359.28125 44.707031 359.480469 44.796875 359.679688 44.886719 C 358.988281 43.507812 358.230469 42.167969 357.335938 40.902344 C 357.007812 40.4375 356.40625 40.613281 356.21875 41.101562 C 355.53125 42.882812 354.84375 44.664062 354.15625 46.449219 C 354.273438 46.3125 354.390625 46.171875 354.507812 46.035156 C 352.699219 46.730469 350.863281 47.347656 349.027344 47.953125 C 348.441406 48.148438 348.183594 49.117188 348.847656 49.414062 C 350.480469 50.148438 352.390625 50.402344 354.160156 50.59375 C 353.992188 50.25 353.824219 49.90625 353.660156 49.558594 C 352.894531 51.574219 352.152344 53.785156 352.144531 55.953125 C 352.140625 56.453125 352.808594 56.820312 353.175781 56.421875 C 354.6875 54.78125 356.199219 53.148438 357.847656 51.644531 C 357.585938 51.652344 357.320312 51.660156 357.054688 51.667969 C 358.488281 53.078125 360.011719 54.382812 361.625 55.585938 C 362.148438 55.980469 362.75 55.4375 362.675781 54.851562 C 362.421875 52.878906 361.726562 50.925781 361.054688 49.0625 C 360.71875 48.128906 359.550781 48.867188 359.847656 49.6875 Z M 359.84375 49.683594 "/></g></g></g><path style=" stroke:none;fill-rule:nonzero;fill:#f5349b;fill-opacity:1;" d="M 101.839844 59.925781 C 101.207031 59.066406 100.421875 58.332031 99.566406 57.667969 C 97.816406 54.859375 94.976562 52.964844 91.34375 53.058594 C 91.027344 53.070312 90.738281 53.183594 90.46875 53.34375 C 89.035156 52.367188 87.5 51.984375 85.980469 52.066406 C 83.140625 51.746094 80.230469 52.707031 78.285156 55.039062 C 76.851562 56.753906 76.097656 58.859375 75.8125 61.042969 C 75.457031 62.3125 75.324219 63.640625 75.519531 64.9375 C 75.582031 65.347656 75.6875 65.742188 75.816406 66.128906 C 76.082031 68.640625 76.769531 71.160156 78.28125 73.082031 C 78.65625 73.5625 79.066406 73.9375 79.496094 74.269531 C 80.308594 75.179688 81.320312 75.949219 82.578125 76.5 C 84.019531 77.136719 85.574219 77.308594 87.070312 77.0625 C 87.25 77.734375 87.472656 78.390625 87.800781 79.015625 C 88.1875 79.753906 89.023438 79.863281 89.746094 79.605469 C 92.925781 78.480469 95.707031 76.03125 97.472656 73.035156 C 98.222656 73.234375 98.972656 72.632812 99.402344 72.09375 C 102.132812 68.683594 104.855469 64 101.839844 59.933594 Z M 82.960938 67.425781 C 82.898438 67.058594 82.863281 66.6875 82.839844 66.3125 C 82.828125 66.117188 82.820312 65.921875 82.820312 65.726562 C 82.820312 65.832031 82.820312 65.578125 82.839844 65.324219 C 82.882812 64.445312 83.007812 63.574219 83.1875 62.714844 C 83.34375 61.957031 83.496094 61.394531 83.851562 60.433594 C 83.992188 60.042969 84.148438 59.65625 84.324219 59.273438 C 84.386719 59.128906 84.457031 58.992188 84.523438 58.855469 C 84.542969 58.8125 84.695312 58.53125 84.742188 58.460938 C 84.925781 58.140625 85.140625 57.847656 85.34375 57.539062 C 85.363281 57.511719 85.367188 57.496094 85.382812 57.480469 C 85.394531 57.464844 85.398438 57.460938 85.417969 57.441406 C 85.542969 57.3125 85.671875 57.183594 85.792969 57.050781 C 85.8125 57.023438 85.804688 57.027344 85.824219 57.011719 C 85.9375 56.941406 86.058594 56.859375 86.167969 56.78125 C 86.195312 56.761719 86.210938 56.75 86.21875 56.742188 C 86.226562 56.75 86.21875 56.757812 86.246094 56.761719 C 86.589844 56.828125 86.324219 56.753906 86.289062 56.75 C 86.433594 56.769531 86.574219 56.785156 86.71875 56.820312 C 86.773438 56.835938 86.839844 56.859375 86.902344 56.882812 C 85.085938 58.488281 84.066406 60.800781 83.574219 63.160156 C 83.257812 64.6875 83.183594 66.292969 83.246094 67.859375 C 83.179688 67.851562 83.113281 67.839844 83.046875 67.828125 C 83.011719 67.6875 82.984375 67.554688 82.957031 67.417969 Z M 87.285156 62.226562 C 87.511719 61.289062 87.863281 60.554688 88.3125 59.863281 C 88.363281 59.785156 88.417969 59.714844 88.472656 59.640625 C 88.609375 59.5 88.757812 59.355469 88.894531 59.214844 C 88.925781 59.179688 88.941406 59.164062 88.957031 59.144531 C 88.976562 59.136719 89 59.121094 89.039062 59.097656 C 89.046875 59.09375 89.0625 59.085938 89.070312 59.078125 C 89.347656 59.96875 89.324219 60.976562 89.144531 61.949219 C 88.835938 63.628906 88.003906 65.160156 86.859375 66.363281 C 86.816406 64.9375 86.988281 63.46875 87.285156 62.230469 Z M 95.613281 65.660156 C 95.707031 65.429688 95.792969 65.191406 95.875 64.953125 C 96.484375 63.910156 96.949219 62.765625 97.113281 61.585938 C 97.242188 61.914062 97.363281 62.242188 97.449219 62.574219 C 97.542969 62.90625 97.609375 63.261719 97.664062 63.621094 C 97.121094 63.789062 96.589844 64.148438 96.3125 64.542969 C 96.027344 64.957031 95.78125 65.394531 95.53125 65.832031 C 95.554688 65.777344 95.585938 65.722656 95.609375 65.664062 Z M 90.757812 75.511719 C 90.75 75.488281 90.746094 75.460938 90.734375 75.433594 C 91.953125 74.496094 92.886719 73.269531 93.589844 71.902344 C 93.574219 72.089844 93.53125 72.269531 93.523438 72.457031 C 93.511719 72.691406 93.554688 72.914062 93.617188 73.117188 C 92.796875 74.082031 91.816406 74.914062 90.753906 75.511719 Z M 90.757812 75.511719 "/><path style=" stroke:none;fill-rule:nonzero;fill:#f5349b;fill-opacity:1;" d="M 86.175781 56.792969 C 86.175781 56.792969 86.1875 56.78125 86.199219 56.769531 C 86.132812 56.832031 85.929688 56.992188 86.175781 56.792969 Z M 86.175781 56.792969 "/><path style=" stroke:none;fill-rule:nonzero;fill:#f5349b;fill-opacity:1;" d="M 86.21875 56.757812 C 86.214844 56.761719 86.210938 56.765625 86.199219 56.777344 C 86.203125 56.769531 86.214844 56.761719 86.21875 56.761719 Z M 86.21875 56.757812 "/><g clip-rule="nonzero" clip-path="url(#4f0eb69dd2)"><path style=" stroke:none;fill-rule:nonzero;fill:#ffffff;fill-opacity:1;" d="M 88.191406 52.4375 C 93.300781 52.9375 97.691406 56.832031 99.21875 61.675781 C 100.800781 66.6875 98.578125 71.871094 94.371094 74.835938 C 90.113281 77.84375 84.613281 77.765625 80.425781 74.679688 C 76.355469 71.6875 73.929688 66.421875 75.359375 61.421875 C 76.953125 55.867188 82.464844 52.0625 88.1875 52.4375 C 89.847656 52.550781 90.609375 49.636719 88.734375 49.515625 C 82.339844 49.101562 76.339844 52.957031 73.589844 58.671875 C 70.792969 64.46875 72.339844 71.179688 76.832031 75.644531 C 81.300781 80.089844 87.957031 81.257812 93.613281 78.414062 C 99.1875 75.613281 103.222656 69.464844 102.472656 63.109375 C 101.644531 56.089844 95.789062 50.203125 88.738281 49.519531 C 87.082031 49.359375 86.320312 52.257812 88.191406 52.445312 Z M 88.191406 52.4375 "/></g><g style="fill:#ffffff;fill-opacity:1;"><g transform="translate(80.305326, 113.274987)"><path style="stroke:none" d="M 9.5 -11.203125 L 9.5 0 L 8.359375 0 L 8.359375 -5.28125 L 2.53125 -5.28125 L 2.53125 0 L 1.375 0 L 1.375 -11.203125 L 2.53125 -11.203125 L 2.53125 -6.234375 L 8.359375 -6.234375 L 8.359375 -11.203125 Z M 9.5 -11.203125 "/></g></g><g style="fill:#ffffff;fill-opacity:1;"><g transform="translate(94.382725, 113.274987)"><path style="stroke:none" d="M 2.21875 -11.203125 L 3.375 -11.203125 L 3.375 0 L 2.21875 0 Z M 2.21875 -11.203125 "/></g></g><g style="fill:#ffffff;fill-opacity:1;"><g transform="translate(103.181389, 113.274987)"><path style="stroke:none" d="M 5.15625 0.15625 C 4.414062 0.15625 3.734375 0.0390625 3.109375 -0.1875 C 2.492188 -0.414062 2.003906 -0.726562 1.640625 -1.125 C 1.285156 -1.519531 1.109375 -1.953125 1.109375 -2.421875 C 1.109375 -2.628906 1.179688 -2.800781 1.328125 -2.9375 C 1.484375 -3.070312 1.691406 -3.144531 1.953125 -3.15625 C 2.117188 -2.394531 2.476562 -1.816406 3.03125 -1.421875 C 3.59375 -1.023438 4.3125 -0.828125 5.1875 -0.828125 C 6.082031 -0.828125 6.800781 -1.035156 7.34375 -1.453125 C 7.894531 -1.867188 8.171875 -2.414062 8.171875 -3.09375 C 8.171875 -3.488281 8.070312 -3.820312 7.875 -4.09375 C 7.675781 -4.375 7.351562 -4.625 6.90625 -4.84375 C 6.457031 -5.0625 5.84375 -5.269531 5.0625 -5.46875 C 4.144531 -5.71875 3.421875 -5.976562 2.890625 -6.25 C 2.367188 -6.519531 1.992188 -6.828125 1.765625 -7.171875 C 1.535156 -7.523438 1.421875 -7.957031 1.421875 -8.46875 C 1.421875 -9.363281 1.75 -10.066406 2.40625 -10.578125 C 3.070312 -11.097656 3.988281 -11.359375 5.15625 -11.359375 C 6.164062 -11.359375 7.007812 -11.117188 7.6875 -10.640625 C 8.363281 -10.171875 8.820312 -9.503906 9.0625 -8.640625 C 8.914062 -8.503906 8.703125 -8.4375 8.421875 -8.4375 C 8.117188 -8.4375 7.898438 -8.578125 7.765625 -8.859375 C 7.523438 -9.328125 7.164062 -9.703125 6.6875 -9.984375 C 6.21875 -10.265625 5.707031 -10.40625 5.15625 -10.40625 C 4.3125 -10.40625 3.671875 -10.238281 3.234375 -9.90625 C 2.796875 -9.570312 2.578125 -9.09375 2.578125 -8.46875 C 2.578125 -8.144531 2.65625 -7.875 2.8125 -7.65625 C 2.976562 -7.4375 3.242188 -7.234375 3.609375 -7.046875 C 3.984375 -6.867188 4.515625 -6.6875 5.203125 -6.5 C 6.335938 -6.175781 7.195312 -5.867188 7.78125 -5.578125 C 8.363281 -5.296875 8.769531 -4.972656 9 -4.609375 C 9.238281 -4.242188 9.359375 -3.769531 9.359375 -3.1875 C 9.359375 -2.507812 9.1875 -1.914062 8.84375 -1.40625 C 8.507812 -0.90625 8.023438 -0.519531 7.390625 -0.25 C 6.753906 0.0195312 6.007812 0.15625 5.15625 0.15625 Z M 5.15625 0.15625 "/></g></g><g style="fill:#ffffff;fill-opacity:1;"><g transform="translate(116.650935, 113.274987)"><path style="stroke:none" d="M 8.296875 -11.203125 C 8.347656 -11.003906 8.375 -10.875 8.375 -10.8125 C 8.375 -10.632812 8.320312 -10.492188 8.21875 -10.390625 C 8.125 -10.285156 7.984375 -10.234375 7.796875 -10.234375 L 4.84375 -10.234375 L 4.84375 0 L 3.703125 0 L 3.703125 -10.234375 L 0.234375 -10.234375 L 0.234375 -11.203125 Z M 8.296875 -11.203125 "/></g></g><g style="fill:#ffffff;fill-opacity:1;"><g transform="translate(128.392893, 113.274987)"><path style="stroke:none" d="M 5.4375 0.15625 C 3.9375 0.15625 2.78125 -0.34375 1.96875 -1.34375 C 1.164062 -2.34375 0.765625 -3.78125 0.765625 -5.65625 C 0.765625 -7.5 1.164062 -8.910156 1.96875 -9.890625 C 2.78125 -10.867188 3.9375 -11.359375 5.4375 -11.359375 C 6.945312 -11.359375 8.101562 -10.867188 8.90625 -9.890625 C 9.707031 -8.910156 10.109375 -7.5 10.109375 -5.65625 C 10.109375 -3.78125 9.707031 -2.34375 8.90625 -1.34375 C 8.101562 -0.34375 6.945312 0.15625 5.4375 0.15625 Z M 5.4375 -0.859375 C 6.59375 -0.859375 7.460938 -1.257812 8.046875 -2.0625 C 8.628906 -2.875 8.921875 -4.070312 8.921875 -5.65625 C 8.921875 -8.78125 7.757812 -10.34375 5.4375 -10.34375 C 3.113281 -10.34375 1.953125 -8.78125 1.953125 -5.65625 C 1.953125 -4.070312 2.242188 -2.875 2.828125 -2.0625 C 3.421875 -1.257812 4.289062 -0.859375 5.4375 -0.859375 Z M 6.1875 -14.296875 L 7.546875 -14.296875 L 5.453125 -11.875 L 4.390625 -11.875 Z M 6.1875 -14.296875 "/></g></g><g style="fill:#ffffff;fill-opacity:1;"><g transform="translate(142.470292, 113.274987)"><path style="stroke:none" d="M 9.359375 -0.046875 C 9.148438 0.0664062 8.921875 0.125 8.671875 0.125 C 8.484375 0.125 8.328125 0.0859375 8.203125 0.015625 C 8.078125 -0.0546875 7.96875 -0.179688 7.875 -0.359375 L 6.046875 -3.484375 C 5.785156 -3.929688 5.472656 -4.25 5.109375 -4.4375 C 4.742188 -4.625 4.242188 -4.71875 3.609375 -4.71875 L 2.53125 -4.71875 L 2.53125 0 L 1.375 0 L 1.375 -11.203125 L 5.015625 -11.203125 C 6.296875 -11.203125 7.304688 -10.914062 8.046875 -10.34375 C 8.785156 -9.769531 9.15625 -8.976562 9.15625 -7.96875 C 9.15625 -7.164062 8.882812 -6.472656 8.34375 -5.890625 C 7.8125 -5.316406 7.117188 -4.957031 6.265625 -4.8125 C 6.578125 -4.5625 6.859375 -4.238281 7.109375 -3.84375 Z M 4.921875 -5.71875 C 5.890625 -5.71875 6.632812 -5.910156 7.15625 -6.296875 C 7.6875 -6.691406 7.953125 -7.25 7.953125 -7.96875 C 7.953125 -8.707031 7.703125 -9.265625 7.203125 -9.640625 C 6.710938 -10.015625 5.984375 -10.203125 5.015625 -10.203125 L 2.53125 -10.203125 L 2.53125 -5.71875 Z M 4.921875 -5.71875 "/></g></g><g style="fill:#ffffff;fill-opacity:1;"><g transform="translate(155.731888, 113.274987)"><path style="stroke:none" d="M 2.21875 -11.203125 L 3.375 -11.203125 L 3.375 0 L 2.21875 0 Z M 2.21875 -11.203125 "/></g></g><g style="fill:#ffffff;fill-opacity:1;"><g transform="translate(164.530552, 113.274987)"><path style="stroke:none" d="M 8.5 0 C 8.207031 -1.320312 7.9375 -2.40625 7.6875 -3.25 L 2.234375 -3.25 C 1.984375 -2.40625 1.710938 -1.320312 1.421875 0 L 0.234375 0 C 0.796875 -2.28125 1.398438 -4.304688 2.046875 -6.078125 C 2.703125 -7.859375 3.476562 -9.566406 4.375 -11.203125 L 5.5625 -11.203125 C 6.445312 -9.578125 7.210938 -7.875 7.859375 -6.09375 C 8.515625 -4.320312 9.125 -2.289062 9.6875 0 Z M 7.40625 -4.203125 C 6.757812 -6.273438 5.941406 -8.21875 4.953125 -10.03125 C 3.972656 -8.21875 3.160156 -6.273438 2.515625 -4.203125 Z M 7.40625 -4.203125 "/></g></g><g style="fill:#ffffff;fill-opacity:1;"><g transform="translate(177.648181, 113.274987)"><path style="stroke:none" d="M 5.15625 0.15625 C 4.414062 0.15625 3.734375 0.0390625 3.109375 -0.1875 C 2.492188 -0.414062 2.003906 -0.726562 1.640625 -1.125 C 1.285156 -1.519531 1.109375 -1.953125 1.109375 -2.421875 C 1.109375 -2.628906 1.179688 -2.800781 1.328125 -2.9375 C 1.484375 -3.070312 1.691406 -3.144531 1.953125 -3.15625 C 2.117188 -2.394531 2.476562 -1.816406 3.03125 -1.421875 C 3.59375 -1.023438 4.3125 -0.828125 5.1875 -0.828125 C 6.082031 -0.828125 6.800781 -1.035156 7.34375 -1.453125 C 7.894531 -1.867188 8.171875 -2.414062 8.171875 -3.09375 C 8.171875 -3.488281 8.070312 -3.820312 7.875 -4.09375 C 7.675781 -4.375 7.351562 -4.625 6.90625 -4.84375 C 6.457031 -5.0625 5.84375 -5.269531 5.0625 -5.46875 C 4.144531 -5.71875 3.421875 -5.976562 2.890625 -6.25 C 2.367188 -6.519531 1.992188 -6.828125 1.765625 -7.171875 C 1.535156 -7.523438 1.421875 -7.957031 1.421875 -8.46875 C 1.421875 -9.363281 1.75 -10.066406 2.40625 -10.578125 C 3.070312 -11.097656 3.988281 -11.359375 5.15625 -11.359375 C 6.164062 -11.359375 7.007812 -11.117188 7.6875 -10.640625 C 8.363281 -10.171875 8.820312 -9.503906 9.0625 -8.640625 C 8.914062 -8.503906 8.703125 -8.4375 8.421875 -8.4375 C 8.117188 -8.4375 7.898438 -8.578125 7.765625 -8.859375 C 7.523438 -9.328125 7.164062 -9.703125 6.6875 -9.984375 C 6.21875 -10.265625 5.707031 -10.40625 5.15625 -10.40625 C 4.3125 -10.40625 3.671875 -10.238281 3.234375 -9.90625 C 2.796875 -9.570312 2.578125 -9.09375 2.578125 -8.46875 C 2.578125 -8.144531 2.65625 -7.875 2.8125 -7.65625 C 2.976562 -7.4375 3.242188 -7.234375 3.609375 -7.046875 C 3.984375 -6.867188 4.515625 -6.6875 5.203125 -6.5 C 6.335938 -6.175781 7.195312 -5.867188 7.78125 -5.578125 C 8.363281 -5.296875 8.769531 -4.972656 9 -4.609375 C 9.238281 -4.242188 9.359375 -3.769531 9.359375 -3.1875 C 9.359375 -2.507812 9.1875 -1.914062 8.84375 -1.40625 C 8.507812 -0.90625 8.023438 -0.519531 7.390625 -0.25 C 6.753906 0.0195312 6.007812 0.15625 5.15625 0.15625 Z M 5.15625 0.15625 "/></g></g><g style="fill:#ffffff;fill-opacity:1;"><g transform="translate(191.117727, 113.274987)"><path style="stroke:none" d=""/></g></g><g style="fill:#ffffff;fill-opacity:1;"><g transform="translate(198.444749, 113.274987)"><path style="stroke:none" d="M 2.21875 -11.203125 L 3.375 -11.203125 L 3.375 0 L 2.21875 0 Z M 2.21875 -11.203125 "/></g></g><g style="fill:#ffffff;fill-opacity:1;"><g transform="translate(207.243412, 113.274987)"><path style="stroke:none" d="M 9.59375 -2.1875 C 9.59375 -1.863281 9.601562 -1.476562 9.625 -1.03125 C 9.644531 -0.726562 9.65625 -0.53125 9.65625 -0.4375 C 9.65625 -0.144531 9.519531 0 9.25 0 L 8.453125 0 L 8.453125 -0.859375 C 8.453125 -1.484375 8.242188 -2.078125 7.828125 -2.640625 L 2.53125 -9.609375 L 2.53125 0 L 1.375 0 L 1.375 -11.203125 L 2.296875 -11.203125 C 2.441406 -11.203125 2.550781 -11.179688 2.625 -11.140625 C 2.707031 -11.109375 2.800781 -11.019531 2.90625 -10.875 L 8.453125 -3.59375 L 8.453125 -11.203125 L 9.59375 -11.203125 Z M 9.59375 -2.1875 "/></g></g><g style="fill:#ffffff;fill-opacity:1;"><g transform="translate(221.480766, 113.274987)"><path style="stroke:none" d="M 2.53125 -10.234375 L 2.53125 -6.28125 L 7.28125 -6.28125 L 7.28125 -5.328125 L 2.53125 -5.328125 L 2.53125 0 L 1.375 0 L 1.375 -11.203125 L 7.96875 -11.203125 L 7.96875 -10.234375 Z M 2.53125 -10.234375 "/></g></g><g style="fill:#ffffff;fill-opacity:1;"><g transform="translate(233.15874, 113.274987)"><path style="stroke:none" d="M 8.5 0 C 8.207031 -1.320312 7.9375 -2.40625 7.6875 -3.25 L 2.234375 -3.25 C 1.984375 -2.40625 1.710938 -1.320312 1.421875 0 L 0.234375 0 C 0.796875 -2.28125 1.398438 -4.304688 2.046875 -6.078125 C 2.703125 -7.859375 3.476562 -9.566406 4.375 -11.203125 L 5.5625 -11.203125 C 6.445312 -9.578125 7.210938 -7.875 7.859375 -6.09375 C 8.515625 -4.320312 9.125 -2.289062 9.6875 0 Z M 7.40625 -4.203125 C 6.757812 -6.273438 5.941406 -8.21875 4.953125 -10.03125 C 3.972656 -8.21875 3.160156 -6.273438 2.515625 -4.203125 Z M 7.40625 -4.203125 "/></g></g><g style="fill:#ffffff;fill-opacity:1;"><g transform="translate(246.276369, 113.274987)"><path style="stroke:none" d="M 9.59375 -2.1875 C 9.59375 -1.863281 9.601562 -1.476562 9.625 -1.03125 C 9.644531 -0.726562 9.65625 -0.53125 9.65625 -0.4375 C 9.65625 -0.144531 9.519531 0 9.25 0 L 8.453125 0 L 8.453125 -0.859375 C 8.453125 -1.484375 8.242188 -2.078125 7.828125 -2.640625 L 2.53125 -9.609375 L 2.53125 0 L 1.375 0 L 1.375 -11.203125 L 2.296875 -11.203125 C 2.441406 -11.203125 2.550781 -11.179688 2.625 -11.140625 C 2.707031 -11.109375 2.800781 -11.019531 2.90625 -10.875 L 8.453125 -3.59375 L 8.453125 -11.203125 L 9.59375 -11.203125 Z M 9.59375 -2.1875 "/></g></g><g style="fill:#ffffff;fill-opacity:1;"><g transform="translate(260.513722, 113.274987)"><path style="stroke:none" d="M 8.296875 -11.203125 C 8.347656 -11.003906 8.375 -10.875 8.375 -10.8125 C 8.375 -10.632812 8.320312 -10.492188 8.21875 -10.390625 C 8.125 -10.285156 7.984375 -10.234375 7.796875 -10.234375 L 4.84375 -10.234375 L 4.84375 0 L 3.703125 0 L 3.703125 -10.234375 L 0.234375 -10.234375 L 0.234375 -11.203125 Z M 8.296875 -11.203125 "/></g></g><g style="fill:#ffffff;fill-opacity:1;"><g transform="translate(272.25568, 113.274987)"><path style="stroke:none" d="M 2.21875 -11.203125 L 3.375 -11.203125 L 3.375 0 L 2.21875 0 Z M 2.21875 -11.203125 "/></g></g><g style="fill:#ffffff;fill-opacity:1;"><g transform="translate(281.054344, 113.274987)"><path style="stroke:none" d="M 5.15625 0.15625 C 4.414062 0.15625 3.734375 0.0390625 3.109375 -0.1875 C 2.492188 -0.414062 2.003906 -0.726562 1.640625 -1.125 C 1.285156 -1.519531 1.109375 -1.953125 1.109375 -2.421875 C 1.109375 -2.628906 1.179688 -2.800781 1.328125 -2.9375 C 1.484375 -3.070312 1.691406 -3.144531 1.953125 -3.15625 C 2.117188 -2.394531 2.476562 -1.816406 3.03125 -1.421875 C 3.59375 -1.023438 4.3125 -0.828125 5.1875 -0.828125 C 6.082031 -0.828125 6.800781 -1.035156 7.34375 -1.453125 C 7.894531 -1.867188 8.171875 -2.414062 8.171875 -3.09375 C 8.171875 -3.488281 8.070312 -3.820312 7.875 -4.09375 C 7.675781 -4.375 7.351562 -4.625 6.90625 -4.84375 C 6.457031 -5.0625 5.84375 -5.269531 5.0625 -5.46875 C 4.144531 -5.71875 3.421875 -5.976562 2.890625 -6.25 C 2.367188 -6.519531 1.992188 -6.828125 1.765625 -7.171875 C 1.535156 -7.523438 1.421875 -7.957031 1.421875 -8.46875 C 1.421875 -9.363281 1.75 -10.066406 2.40625 -10.578125 C 3.070312 -11.097656 3.988281 -11.359375 5.15625 -11.359375 C 6.164062 -11.359375 7.007812 -11.117188 7.6875 -10.640625 C 8.363281 -10.171875 8.820312 -9.503906 9.0625 -8.640625 C 8.914062 -8.503906 8.703125 -8.4375 8.421875 -8.4375 C 8.117188 -8.4375 7.898438 -8.578125 7.765625 -8.859375 C 7.523438 -9.328125 7.164062 -9.703125 6.6875 -9.984375 C 6.21875 -10.265625 5.707031 -10.40625 5.15625 -10.40625 C 4.3125 -10.40625 3.671875 -10.238281 3.234375 -9.90625 C 2.796875 -9.570312 2.578125 -9.09375 2.578125 -8.46875 C 2.578125 -8.144531 2.65625 -7.875 2.8125 -7.65625 C 2.976562 -7.4375 3.242188 -7.234375 3.609375 -7.046875 C 3.984375 -6.867188 4.515625 -6.6875 5.203125 -6.5 C 6.335938 -6.175781 7.195312 -5.867188 7.78125 -5.578125 C 8.363281 -5.296875 8.769531 -4.972656 9 -4.609375 C 9.238281 -4.242188 9.359375 -3.769531 9.359375 -3.1875 C 9.359375 -2.507812 9.1875 -1.914062 8.84375 -1.40625 C 8.507812 -0.90625 8.023438 -0.519531 7.390625 -0.25 C 6.753906 0.0195312 6.007812 0.15625 5.15625 0.15625 Z M 5.15625 0.15625 "/></g></g></g></svg>